<svg xmlns="http://www.w3.org/2000/svg" width="560" height="560" version="1.1"><path fill="#111" d="M0 0 C6.52784546 7.12828408 5.47172112 20.06617345 5.26953125 29.296875 C4.92543848 34.02441051 3.85991908 37.6601888 2 42 C1.34 42 0.68 42 0 42 C-0.103125 42.886875 -0.20625 43.77375 -0.3125 44.6875 C-1 48 -1 48 -2.5625 50.5 C-4.45543059 53.7920532 -4.73571113 55.24787321 -4 59 C0.4335332 66.76257217 7.89660137 70.02673806 16 73 C17.38895787 73.30413388 18.78452087 73.58152173 20.1875 73.8125 C25.03871949 75.32353558 27.51452982 77.87523628 31.14453125 81.34765625 C34.40465292 84.37586776 37.81070758 87.13420753 41.3125 89.875 C41.89918457 90.33898193 42.48586914 90.80296387 43.09033203 91.28100586 C47.3578362 94.614727 51.33919681 97.39607157 56.4375 99.25 C61.26912757 101.62343109 64.58510159 105.17020318 67 110 C67.3728533 114.47423957 67.4448958 117.03283521 65.5625 121.125 C61.15702486 126.06772821 56.17783534 129.98656156 49.5 131.0625 C44.62684865 131.33752794 40.44881281 129.86155997 36 128 C36.28875 128.86625 36.5775 129.7325 36.875 130.625 C37 134 37 134 35.73046875 135.734375 C34.20554038 137.23430454 32.65577299 138.64658556 31 140 C31.40992188 140.80824219 31.81984375 141.61648437 32.2421875 142.44921875 C32.78101563 143.51785156 33.31984375 144.58648437 33.875 145.6875 C34.40867187 146.74324219 34.94234375 147.79898438 35.4921875 148.88671875 C37.6263806 153.2933299 39.27993637 156.73795271 39.1875 161.6875 C39.18105469 162.45449219 39.17460937 163.22148437 39.16796875 164.01171875 C39 166 39 166 38 168 C38.66 168 39.32 168 40 168 C40.09796875 168.52464844 40.1959375 169.04929687 40.296875 169.58984375 C41.30436066 174.80966171 42.47687625 179.96354412 43.75 185.125 C49.17073601 207.83596945 52.80594418 230.57195257 54.73413086 253.83081055 C54.98485859 256.81951267 55.26685571 259.80374682 55.5546875 262.7890625 C56.72861319 275.74716872 57.7255632 287.76672889 49.984375 298.8984375 C40.78300194 313.28011114 38.21276199 338.46238783 41 355 C41.21462891 356.40958984 41.21462891 356.40958984 41.43359375 357.84765625 C42.73110113 363.78039691 45.44391695 367.50224955 50.140625 371.31640625 C55.67775641 374.57665712 61.78926465 375.61313677 68 377 C71.03399876 377.92339093 74.00695834 378.94980994 77 380 C77.27632268 381.43267304 77.52019671 382.87163335 77.75 384.3125 C77.88921875 385.11300781 78.0284375 385.91351563 78.171875 386.73828125 C78 389 78 389 76.31640625 390.6875 C65.9556891 396.55799066 52.85873488 396.38319241 41.5625 393.6875 C36.93729051 392.37316442 32.45727918 390.80005505 28 389 C27.67 389.66 27.34 390.32 27 391 C23.9375 391.625 23.9375 391.625 21 392 C21.72316406 392.52787109 21.72316406 392.52787109 22.4609375 393.06640625 C26.97273238 396.59297245 29.14201672 399.10136494 30 405 C29.79296875 407.5703125 29.79296875 407.5703125 29 410 C22.30859001 415.08780411 12.95330714 414.87747755 5 414 C-2.496295 412.38716077 -6.08837997 407.83965108 -10.8671875 402.13671875 C-13.73996171 399.25868304 -16.02012685 399.15307204 -20 399 C-22.70567626 397.17660948 -24.53728718 395.92542564 -26 393 C-26.07148199 391.64756083 -26.08399454 390.29165633 -26.0625 388.9375 C-26.05476563 388.14085937 -26.04703125 387.34421875 -26.0390625 386.5234375 C-26 384 -26 384 -25.9609375 381.4765625 C-25.95320313 380.67992187 -25.94546875 379.88328125 -25.9375 379.0625 C-25.92589844 378.33160156 -25.91429687 377.60070312 -25.90234375 376.84765625 C-25.88176172 374.90365825 -25.88176172 374.90365825 -27 373 C-27.23463183 369.63694383 -27.39214109 366.28055262 -27.51757812 362.91210938 C-27.71485275 358.73956503 -28.19244527 354.78571963 -29.015625 350.6875 C-30.1511553 344.74339389 -30.34275622 338.97803829 -30.3125 332.9375 C-30.30947876 331.27738892 -30.30947876 331.27738892 -30.30639648 329.58374023 C-29.98131399 301.94394198 -29.98131399 301.94394198 -26 290 C-25.90617459 288.06746931 -25.87206888 286.13182792 -25.87060547 284.19702148 C-25.86587723 282.40124916 -25.86587723 282.40124916 -25.86105347 280.56919861 C-25.8630777 279.26632401 -25.86510193 277.9634494 -25.8671875 276.62109375 C-25.86651224 275.25277184 -25.86554036 273.88445005 -25.86428833 272.51612854 C-25.86281042 269.63012565 -25.86496132 266.7441536 -25.86962891 263.8581543 C-25.87520439 260.24235396 -25.87204232 256.62662927 -25.86617088 253.01083183 C-25.84597324 238.17759186 -25.94952022 223.37358879 -26.68356323 208.55381775 C-27.18951513 197.90673082 -27.03798865 187.08120198 -25.67797852 176.49291992 C-24.94132898 170.68281279 -25.21371669 165.97161813 -26.6875 160.3125 C-26.84927734 159.60544922 -27.01105469 158.89839844 -27.17773438 158.16992188 C-28.7522806 151.77148498 -31.28107474 146.14253287 -36.3125 141.6875 C-44.06665215 134.16530967 -48.09426022 125.99868964 -51.578125 115.95703125 C-52.79524884 112.46073404 -54.2955166 109.16224709 -55.875 105.8125 C-58.79415424 98.86888069 -59.20963042 92.0161597 -57.44140625 84.68359375 C-54.87376768 78.40577887 -49.28843211 74.90742833 -44 71 C-39.61548175 67.59338162 -36.87670728 65.34139765 -35 60 C-32.41970421 57.58617491 -31.5934292 57 -28 57 C-28.45259156 51.65941961 -29.08644864 48.56034126 -32 44 C-32 42.68 -32 41.36 -32 40 C-32.64195312 39.75507813 -33.28390625 39.51015625 -33.9453125 39.2578125 C-36 38 -36 38 -36.6796875 36.1796875 C-37.7391124 23.67847373 -36.11823539 12.02216451 -30 1 C-29.34 1 -28.68 1 -28 1 C-27.7525 0.38125 -27.505 -0.2375 -27.25 -0.875 C-25.72913186 -3.46047584 -24.79953781 -3.98905579 -22 -5 C-13.49917773 -7.12520557 -6.67739803 -5.49293718 0 0 Z M13 236 C11.30481466 240.5591587 10.4859591 244.96400032 9.95703125 249.7734375 C9.77251101 251.31975503 9.58717305 252.86597515 9.40112305 254.41210938 C9.30552094 255.22059326 9.20991882 256.02907715 9.11141968 256.86206055 C7.59408338 269.61790948 5.72697873 282.07157449 2.66513062 294.55078125 C-1.87647749 313.08516198 -2.31849875 330.90942101 -0.22753906 349.88623047 C0.05864741 352.54481685 0.21255957 355.2063358 0.375 357.875 C1.07872037 368.54582574 1.07872037 368.54582574 5.6015625 377.83984375 C6.06304687 378.22269531 6.52453125 378.60554687 7 379 C7.34347487 377.04341993 7.67415539 375.08459329 8 373.125 C8.185625 372.03445313 8.37125 370.94390625 8.5625 369.8203125 C8.89536882 366.91365445 9.02982656 364.3134189 8.99291992 361.41113281 C8.97090048 356.12290844 9.21941004 350.87815107 9.55078125 345.6015625 C9.61025436 344.64535004 9.66972748 343.68913757 9.73100281 342.70394897 C9.85778144 340.6954175 9.98645278 338.68700467 10.11694336 336.67871094 C10.31150663 333.64051203 10.49078744 330.60164228 10.66992188 327.5625 C11.4908324 314.40444622 12.9411044 302.5421517 18.625 290.5 C21.6759337 283.89384604 23.27319117 280.23006328 22 273 C21.85965332 272.09411133 21.71930664 271.18822266 21.57470703 270.25488281 C20.3755907 262.65208777 18.71830206 255.22022414 16.875 247.75 C16.45927734 246.04263672 16.45927734 246.04263672 16.03515625 244.30078125 C15.36062718 241.53288612 14.68219766 238.7660131 14 236 C13.67 236 13.34 236 13 236 Z" transform="translate(288,98)"/><path fill="#1F2229" d="M0 0 C6.52784546 7.12828408 5.47172112 20.06617345 5.26953125 29.296875 C4.92543848 34.02441051 3.85991908 37.6601888 2 42 C1.34 42 0.68 42 0 42 C-0.103125 42.886875 -0.20625 43.77375 -0.3125 44.6875 C-1 48 -1 48 -2.5625 50.5 C-4.45543059 53.7920532 -4.73571113 55.24787321 -4 59 C0.4335332 66.76257217 7.89660137 70.02673806 16 73 C17.38895787 73.30413388 18.78452087 73.58152173 20.1875 73.8125 C25.03871949 75.32353558 27.51452982 77.87523628 31.14453125 81.34765625 C34.40465292 84.37586776 37.81070758 87.13420753 41.3125 89.875 C41.89918457 90.33898193 42.48586914 90.80296387 43.09033203 91.28100586 C47.3578362 94.614727 51.33919681 97.39607157 56.4375 99.25 C61.26912757 101.62343109 64.58510159 105.17020318 67 110 C67.3728533 114.47423957 67.4448958 117.03283521 65.5625 121.125 C61.15702486 126.06772821 56.17783534 129.98656156 49.5 131.0625 C44.62684865 131.33752794 40.44881281 129.86155997 36 128 C36.28875 128.86625 36.5775 129.7325 36.875 130.625 C37 134 37 134 35.73046875 135.734375 C34.20554038 137.23430454 32.65577299 138.64658556 31 140 C31.40992188 140.80824219 31.81984375 141.61648437 32.2421875 142.44921875 C32.78101563 143.51785156 33.31984375 144.58648437 33.875 145.6875 C34.40867187 146.74324219 34.94234375 147.79898438 35.4921875 148.88671875 C37.6263806 153.2933299 39.27993637 156.73795271 39.1875 161.6875 C39.18105469 162.45449219 39.17460937 163.22148437 39.16796875 164.01171875 C39 166 39 166 38 168 C38.66 168 39.32 168 40 168 C40.66 171.3 41.32 174.6 42 178 C39.36 178.33 36.72 178.66 34 179 C34 179.66 34 180.32 34 181 C33.01 181 32.02 181 31 181 C31 178.69 31 176.38 31 174 C30.34 174 29.68 174 29 174 C29 174.66 29 175.32 29 176 C28.360625 176.474375 27.72125 176.94875 27.0625 177.4375 C24.71627037 178.9091365 24.71627037 178.9091365 24 182 C25.65 181.67 27.3 181.34 29 181 C28.67 181.66 28.34 182.32 28 183 C25.67843403 183.40729228 23.3431213 183.74438677 21 184 C21 183.34 21 182.68 21 182 C19.68 182 18.36 182 17 182 C16.67 182.66 16.34 183.32 16 184 C13.57102104 184.34442981 11.254365 184.56019898 8.8125 184.6875 C7.49894531 184.77386719 6.18539062 184.86023438 4.83203125 184.94921875 C1.38246052 184.99493172 -1.63217044 184.69661171 -5 184 C-5 183.67 -5 183.34 -5 183 C-2.03 182.01 -2.03 182.01 1 181 C0.01 179.02 0.01 179.02 -1 177 C-6.28 177.33 -11.56 177.66 -17 178 C-17 179.98 -17 181.96 -17 184 C-17.66 184 -18.32 184 -19 184 C-18.98839844 184.64066406 -18.97679687 185.28132812 -18.96484375 185.94140625 C-18.95582031 186.80636719 -18.94679688 187.67132813 -18.9375 188.5625 C-18.92589844 189.40941406 -18.91429687 190.25632812 -18.90234375 191.12890625 C-19 194 -19 194 -19.48852539 197.11450195 C-20.05876437 201.44641289 -20.20733035 205.67610309 -20.28125 210.0390625 C-20.30886414 211.30488663 -20.30886414 211.30488663 -20.33703613 212.59628296 C-20.41511813 216.17897863 -20.48341871 219.76184296 -20.55224609 223.34472656 C-20.60414589 225.97209406 -20.66130589 228.59931131 -20.71875 231.2265625 C-20.73232544 232.03187408 -20.74590088 232.83718567 -20.7598877 233.66690063 C-20.84615729 237.57766762 -21.13163148 241.17065104 -22 245 C-22.13505056 246.39980463 -22.24136727 247.80273043 -22.31640625 249.20703125 C-22.37924805 250.33334961 -22.37924805 250.33334961 -22.44335938 251.48242188 C-22.48267578 252.25134766 -22.52199219 253.02027344 -22.5625 253.8125 C-22.62727539 254.99489258 -22.62727539 254.99489258 -22.69335938 256.20117188 C-22.79878321 258.13394215 -22.89983094 260.06695026 -23 262 C-25.18708305 257.6258339 -26.11589744 255.13111148 -26.0625 250.15625 C-26.05420166 248.94251709 -26.04590332 247.72878418 -26.03735352 246.47827148 C-26.02502686 245.16544189 -26.0127002 243.8526123 -26 242.5 C-25.93347725 232.45868453 -26.07728474 222.47035212 -26.5625 212.4375 C-27.11537401 200.47498511 -27.20699024 188.39695436 -25.67797852 176.49291992 C-24.94132898 170.68281279 -25.21371669 165.97161813 -26.6875 160.3125 C-26.84927734 159.60544922 -27.01105469 158.89839844 -27.17773438 158.16992188 C-28.7522806 151.77148498 -31.28107474 146.14253287 -36.3125 141.6875 C-44.06665215 134.16530967 -48.09426022 125.99868964 -51.578125 115.95703125 C-52.79524884 112.46073404 -54.2955166 109.16224709 -55.875 105.8125 C-58.79415424 98.86888069 -59.20963042 92.0161597 -57.44140625 84.68359375 C-54.87376768 78.40577887 -49.28843211 74.90742833 -44 71 C-39.61548175 67.59338162 -36.87670728 65.34139765 -35 60 C-32.41970421 57.58617491 -31.5934292 57 -28 57 C-28.45259156 51.65941961 -29.08644864 48.56034126 -32 44 C-32 42.68 -32 41.36 -32 40 C-32.64195312 39.75507813 -33.28390625 39.51015625 -33.9453125 39.2578125 C-36 38 -36 38 -36.6796875 36.1796875 C-37.7391124 23.67847373 -36.11823539 12.02216451 -30 1 C-29.34 1 -28.68 1 -28 1 C-27.7525 0.38125 -27.505 -0.2375 -27.25 -0.875 C-25.72913186 -3.46047584 -24.79953781 -3.98905579 -22 -5 C-13.49917773 -7.12520557 -6.67739803 -5.49293718 0 0 Z" transform="translate(288,98)"/><path fill="#0F0F0F" d="M0 0 C0.73347656 -0.03738281 1.46695312 -0.07476562 2.22265625 -0.11328125 C4.3671875 -0.1484375 4.3671875 -0.1484375 8.125 0.375 C10.1328125 2.8984375 10.1328125 2.8984375 11.125 5.375 C10.135 5.87 10.135 5.87 9.125 6.375 C12.80463457 7.26824462 15.8647233 7.39081527 19.625 7 C20.5428125 6.90976562 21.460625 6.81953125 22.40625 6.7265625 C25.012726 6.38951819 27.55567556 5.92423964 30.125 5.375 C30.125 6.035 30.125 6.695 30.125 7.375 C30.74375 7.436875 31.3625 7.49875 32 7.5625 C34.125 8.375 34.125 8.375 35.375 10.9375 C35.6225 11.741875 35.87 12.54625 36.125 13.375 C37.445 12.715 38.765 12.055 40.125 11.375 C40.125 13.685 40.125 15.995 40.125 18.375 C38.805 18.705 37.485 19.035 36.125 19.375 C36.0425 20.1175 35.96 20.86 35.875 21.625 C34.9853054 24.88721354 33.63996251 26.18454878 31.125 28.375 C32.775 28.045 34.425 27.715 36.125 27.375 C35.8465625 28.24125 35.8465625 28.24125 35.5625 29.125 C34.96588648 31.33246031 34.96588648 31.33246031 35.625 33.3125 C36.29335382 36.0694595 35.95091584 37.65386667 35.125 40.375 C33.12890625 42.76171875 33.12890625 42.76171875 30.6875 45.0625 C29.88441406 45.82949219 29.08132813 46.59648437 28.25390625 47.38671875 C27.55136719 48.04285156 26.84882813 48.69898438 26.125 49.375 C23.70804249 51.79195751 23.66538332 53.05550247 23.125 56.375 C22.97804688 57.07753906 22.83109375 57.78007812 22.6796875 58.50390625 C21.94257922 62.31922023 21.38068566 66.15679682 20.8125 70 C20.68206299 70.86681396 20.55162598 71.73362793 20.41723633 72.62670898 C19.66238926 77.66240905 18.93925144 82.70098671 18.25 87.74609375 C17.93945701 89.97683581 17.62691421 92.20730028 17.3125 94.4375 C17.15193115 95.57872314 16.9913623 96.71994629 16.82592773 97.89575195 C15.7989392 104.83361928 14.40782456 111.56643834 12.70263672 118.3671875 C7.7017093 138.42990516 7.01708478 159.82009514 11.0625 180.1875 C11.30078125 182.40234375 11.30078125 182.40234375 11.125 184.375 C7.45329353 188.8196973 3.45881306 190.2034564 -2.01953125 191.69921875 C-4.07799018 192.20816662 -4.07799018 192.20816662 -4.875 194.375 C-2.565 194.375 -0.255 194.375 2.125 194.375 C2.125 196.685 2.125 198.995 2.125 201.375 C1.465 201.375 0.805 201.375 0.125 201.375 C0.89094334 203.58503415 1.66297883 205.79295739 2.4375 208 C2.86675781 209.22976563 3.29601562 210.45953125 3.73828125 211.7265625 C6.44394484 219.2178987 6.44394484 219.2178987 12.125 224.375 C12.69605469 224.73851562 13.26710938 225.10203125 13.85546875 225.4765625 C21.03682556 229.43776119 28.25984489 228.51248226 36.125 227.375 C36.785 227.045 37.445 226.715 38.125 226.375 C38.455 228.355 38.785 230.335 39.125 232.375 C37.855447 233.02334654 36.58430294 233.66857815 35.3125 234.3125 C34.25095703 234.85197266 34.25095703 234.85197266 33.16796875 235.40234375 C26.56837115 238.54440838 18.58406593 238.30425062 11.51953125 236.83203125 C5.52531795 234.57226588 2.29281133 230.32700481 -1.7421875 225.51171875 C-4.61496171 222.63368304 -6.89512685 222.52807204 -10.875 222.375 C-13.58067626 220.55160948 -15.41228718 219.30042564 -16.875 216.375 C-16.94648199 215.02256083 -16.95899454 213.66665633 -16.9375 212.3125 C-16.92976563 211.51585937 -16.92203125 210.71921875 -16.9140625 209.8984375 C-16.875 207.375 -16.875 207.375 -16.8359375 204.8515625 C-16.82820313 204.05492187 -16.82046875 203.25828125 -16.8125 202.4375 C-16.80089844 201.70660156 -16.78929687 200.97570312 -16.77734375 200.22265625 C-16.75676172 198.27865825 -16.75676172 198.27865825 -17.875 196.375 C-18.10963183 193.01194383 -18.26714109 189.65555262 -18.39257812 186.28710938 C-18.58985275 182.11456503 -19.06744527 178.16071963 -19.890625 174.0625 C-21.0261553 168.11839389 -21.21775622 162.35303829 -21.1875 156.3125 C-21.18447876 154.65238892 -21.18447876 154.65238892 -21.18139648 152.95874023 C-20.85631399 125.31894198 -20.85631399 125.31894198 -16.875 113.375 C-16.72230819 110.93719623 -16.61817303 108.52216099 -16.55859375 106.08203125 C-16.53781265 105.37600266 -16.51703156 104.66997406 -16.49562073 103.94255066 C-16.43032509 101.69096449 -16.37133353 99.43926338 -16.3125 97.1875 C-16.26929575 95.6594934 -16.22568084 94.13149836 -16.18164062 92.60351562 C-16.07466426 88.86079438 -15.97334078 85.1179577 -15.875 81.375 C-15.545 81.375 -15.215 81.375 -14.875 81.375 C-13.14620968 67.99597213 -12.5156831 54.81067169 -12.34326172 41.33129883 C-11.89644436 9.39644436 -11.89644436 9.39644436 -8.875 6.375 C-8.875 5.55 -8.875 4.725 -8.875 3.875 C-8.875 -1.39954832 -4.14234138 0.07924479 0 0 Z" transform="translate(278.875,274.625)"/><path fill="#0E0E0E" d="M0 0 C0.33 0.66 0.66 1.32 1 2 C4.3 2 7.6 2 11 2 C11.495 4.97 11.495 4.97 12 8 C15.13225836 9.00881294 17.096708 8.95593273 20.25 8.0625 C21.4875 7.711875 22.725 7.36125 24 7 C23.34 7.99 22.68 8.98 22 10 C21.34 10 20.68 10 20 10 C20 10.66 20 11.32 20 12 C21.6266848 11.71788123 23.25132896 11.42397625 24.875 11.125 C26.23238281 10.88136719 26.23238281 10.88136719 27.6171875 10.6328125 C30.16505988 10.16955297 30.16505988 10.16955297 32 8 C32.495 9.7634375 32.495 9.7634375 33 11.5625 C35.07093779 16.88104478 38.06647204 20.13489932 43 23 C46.75177237 24.2905766 50.47986332 25.27630201 54.34375 26.15625 C58.68928322 27.15906536 62.79596127 28.52489869 67 30 C67.27632268 31.43267304 67.52019671 32.87163335 67.75 34.3125 C67.95882812 35.51326172 67.95882812 35.51326172 68.171875 36.73828125 C68 39 68 39 66.31640625 40.6875 C55.9556891 46.55799066 42.85873488 46.38319241 31.5625 43.6875 C26.93729051 42.37316442 22.45727918 40.80005505 18 39 C17.505 39.99 17.505 39.99 17 41 C13.9375 41.625 13.9375 41.625 11 42 C11.49371094 42.37511719 11.98742187 42.75023437 12.49609375 43.13671875 C17.7941681 47.36878216 17.7941681 47.36878216 18.9375 50.875 C18.958125 51.57625 18.97875 52.2775 19 53 C13.85959739 56.42693508 8.05717872 56.37389992 2 56 C-3.93871438 54.00267453 -10.90850507 51.1337243 -13.89135742 45.23828125 C-14.12701416 44.60277344 -14.3626709 43.96726562 -14.60546875 43.3125 C-14.86650391 42.61382812 -15.12753906 41.91515625 -15.39648438 41.1953125 C-15.65751953 40.47085938 -15.91855469 39.74640625 -16.1875 39 C-16.46013672 38.27554688 -16.73277344 37.55109375 -17.01367188 36.8046875 C-18.13810391 33.74983957 -19 31.2801863 -19 28 C-18.34 28 -17.68 28 -17 28 C-17 25.69 -17 23.38 -17 21 C-19.31 21 -21.62 21 -24 21 C-23.01579818 18.42837588 -22.50472686 17.24359404 -19.9765625 16.0234375 C-19.20054687 15.80945313 -18.42453125 15.59546875 -17.625 15.375 C-14.54888622 14.50051949 -11.82522689 13.50936779 -9 12 C-8.80664062 12.74765625 -8.61328125 13.4953125 -8.4140625 14.265625 C-8.02347656 15.74289062 -8.02347656 15.74289062 -7.625 17.25 C-7.36976563 18.22453125 -7.11453125 19.1990625 -6.8515625 20.203125 C-6.10401491 22.65837303 -5.22876183 24.75617405 -4 27 C-2.64477333 20.63527474 -1.89653094 14.7421938 -2.0625 8.23828125 C-1.97892831 5.24537025 -1.15532309 2.74389233 0 0 Z" transform="translate(298,448)"/><path fill="#7E5247" d="M0 0 C6.52784546 7.12828408 5.47172112 20.06617345 5.26953125 29.296875 C4.92543848 34.02441051 3.85991908 37.6601888 2 42 C1.34 42 0.68 42 0 42 C-0.103125 42.886875 -0.20625 43.77375 -0.3125 44.6875 C-1 48 -1 48 -2.5625 50.5 C-4.45543059 53.7920532 -4.73571113 55.24787321 -4 59 C0.47182101 66.82960942 7.93537 69.79840253 16 73 C16 73.33 16 73.66 16 74 C10.22621075 73.5188509 6.04140164 71.81532819 1 69 C0.67 69.66 0.34 70.32 0 71 C-0.32613281 70.50628906 -0.65226562 70.01257813 -0.98828125 69.50390625 C-1.42527344 68.86324219 -1.86226563 68.22257812 -2.3125 67.5625 C-2.74175781 66.92441406 -3.17101562 66.28632813 -3.61328125 65.62890625 C-5.0034052 63.7114316 -5.0034052 63.7114316 -8 63 C-7.67 64.32 -7.34 65.64 -7 67 C-7.99 67.495 -7.99 67.495 -9 68 C-9.66 68.99 -10.32 69.98 -11 71 C-11.66 68.69 -12.32 66.38 -13 64 C-13.56847656 63.96261719 -14.13695312 63.92523438 -14.72265625 63.88671875 C-20.08435193 63.43021378 -24.1669508 62.36510918 -29 60 C-28.96519531 59.26394531 -28.93039062 58.52789062 -28.89453125 57.76953125 C-28.6832967 50.42365256 -28.6832967 50.42365256 -32 44 C-32 42.68 -32 41.36 -32 40 C-32.64195312 39.75507813 -33.28390625 39.51015625 -33.9453125 39.2578125 C-36 38 -36 38 -36.6796875 36.1796875 C-37.7391124 23.67847373 -36.11823539 12.02216451 -30 1 C-29.34 1 -28.68 1 -28 1 C-27.62875 0.071875 -27.62875 0.071875 -27.25 -0.875 C-25.72913186 -3.46047584 -24.79953781 -3.98905579 -22 -5 C-13.49917773 -7.12520557 -6.67739803 -5.49293718 0 0 Z" transform="translate(288,98)"/><path fill="#252930" d="M0 0 C0.75410156 0.05285156 1.50820313 0.10570312 2.28515625 0.16015625 C5.44914578 0.40181087 8.22951798 0.74317266 11.25 1.75 C12.77870732 1.93915252 14.31235889 2.08999674 15.84765625 2.21484375 C17.17313477 2.33182617 17.17313477 2.33182617 18.52539062 2.45117188 C20.3870178 2.60902534 22.24900777 2.76265589 24.11132812 2.91210938 C24.99369141 2.99138672 25.87605469 3.07066406 26.78515625 3.15234375 C27.99764038 3.25276978 27.99764038 3.25276978 29.23461914 3.35522461 C31.25 3.75 31.25 3.75 33.25 5.75 C33.82008229 12.66407496 30.87146106 18.09731355 27.25 23.75 C25.6 23.42 23.95 23.09 22.25 22.75 C22.79140625 23.54664063 22.79140625 23.54664063 23.34375 24.359375 C23.8078125 25.06578125 24.271875 25.7721875 24.75 26.5 C25.2140625 27.19609375 25.678125 27.8921875 26.15625 28.609375 C27.25 30.75 27.25 30.75 27.25 34.75 C26.26 34.75 25.27 34.75 24.25 34.75 C24.25 33.43 24.25 32.11 24.25 30.75 C14.70940655 30.92043254 14.70940655 30.92043254 6.25 34.75 C5.28093173 37.33414426 5.28093173 37.33414426 5.25 39.75 C3.765 40.245 3.765 40.245 2.25 40.75 C1.755 38.275 1.755 38.275 1.25 35.75 C-1.06 36.41 -3.37 37.07 -5.75 37.75 C-6.75 36.75 -6.75 36.75 -6.84765625 34.90234375 C-6.81510417 32.8515625 -6.78255208 30.80078125 -6.75 28.75 C-9.09058637 30.87780579 -10.45700306 32.86562221 -11.75 35.75 C-13.6875 34.625 -13.6875 34.625 -15.75 32.75 C-16.5 29.5625 -16.5 29.5625 -16.75 26.75 C-17.41 26.75 -18.07 26.75 -18.75 26.75 C-19.08 28.73 -19.41 30.71 -19.75 32.75 C-21.235 33.245 -21.235 33.245 -22.75 33.75 C-22.64171875 32.68072266 -22.64171875 32.68072266 -22.53125 31.58984375 C-22.01690274 26.28206573 -21.63150921 21.08208571 -21.75 15.75 C-21.09 16.41 -20.43 17.07 -19.75 17.75 C-20.21800711 13.69393835 -20.62953208 10.28411321 -22.75 6.75 C-24.07 7.08 -25.39 7.41 -26.75 7.75 C-27.08 6.76 -27.41 5.77 -27.75 4.75 C-24.59343086 2.87944051 -22.39314294 2.56317216 -18.75 2.75 C-15.61910413 2.96731188 -15.61910413 2.96731188 -12.609375 1.234375 C-8.31675981 -0.68398615 -4.6031968 -0.42577562 0 0 Z" transform="translate(297.75,197.25)"/><path fill="#DBB6A5" d="M0 0 C2.19031363 0.87445754 2.19031363 0.87445754 5.89453125 0.65625 C6.55453125 -0.00375 7.21453125 -0.66375 7.89453125 -1.34375 C9.89618552 9.03579594 10.09610522 19.8525774 5.89453125 29.65625 C5.23453125 29.65625 4.57453125 29.65625 3.89453125 29.65625 C3.79140625 30.543125 3.68828125 31.43 3.58203125 32.34375 C2.89453125 35.65625 2.89453125 35.65625 1.33203125 38.15625 C-0.56089934 41.4483032 -0.84117988 42.90412321 -0.10546875 46.65625 C4.36635226 54.48585942 11.82990125 57.45465253 19.89453125 60.65625 C19.89453125 60.98625 19.89453125 61.31625 19.89453125 61.65625 C14.120742 61.1751009 9.93593289 59.47157819 4.89453125 56.65625 C4.56453125 57.31625 4.23453125 57.97625 3.89453125 58.65625 C3.56839844 58.16253906 3.24226563 57.66882813 2.90625 57.16015625 C2.25076172 56.19916016 2.25076172 56.19916016 1.58203125 55.21875 C1.15277344 54.58066406 0.72351563 53.94257813 0.28125 53.28515625 C-1.10887395 51.3676816 -1.10887395 51.3676816 -4.10546875 50.65625 C-3.77546875 51.97625 -3.44546875 53.29625 -3.10546875 54.65625 C-4.09546875 55.15125 -4.09546875 55.15125 -5.10546875 55.65625 C-5.76546875 56.64625 -6.42546875 57.63625 -7.10546875 58.65625 C-8.64931007 57.11240868 -8.40942681 55.48270761 -8.60546875 53.34375 C-8.882543 50.35035854 -9.30887859 47.55716582 -10.10546875 44.65625 C-9.14833984 43.96789062 -9.14833984 43.96789062 -8.171875 43.265625 C-7.34558594 42.65203125 -6.51929688 42.0384375 -5.66796875 41.40625 C-4.84425781 40.80296875 -4.02054687 40.1996875 -3.171875 39.578125 C-0.99275171 37.55141676 -0.45844956 36.5571105 -0.10546875 33.65625 C-0.75902344 34.34074219 -0.75902344 34.34074219 -1.42578125 35.0390625 C-3.25304547 36.80304485 -4.93932777 38.32457052 -7.10546875 39.65625 C-10.54296875 39.03125 -10.54296875 39.03125 -13.10546875 37.65625 C-13.10546875 36.99625 -13.10546875 36.33625 -13.10546875 35.65625 C-12.46609375 35.5325 -11.82671875 35.40875 -11.16796875 35.28125 C-10.48734375 35.075 -9.80671875 34.86875 -9.10546875 34.65625 C-8.77546875 33.99625 -8.44546875 33.33625 -8.10546875 32.65625 C-9.75546875 32.65625 -11.40546875 32.65625 -13.10546875 32.65625 C-13.10546875 31.99625 -13.10546875 31.33625 -13.10546875 30.65625 C-12.11546875 30.16125 -12.11546875 30.16125 -11.10546875 29.65625 C-12.42546875 28.99625 -13.74546875 28.33625 -15.10546875 27.65625 C-11.80546875 27.65625 -8.50546875 27.65625 -5.10546875 27.65625 C-6.09546875 26.99625 -7.08546875 26.33625 -8.10546875 25.65625 C-7.77546875 24.99625 -7.44546875 24.33625 -7.10546875 23.65625 C-8.42546875 23.65625 -9.74546875 23.65625 -11.10546875 23.65625 C-11.43546875 19.03625 -11.76546875 14.41625 -12.10546875 9.65625 C-14.41546875 9.32625 -16.72546875 8.99625 -19.10546875 8.65625 C-18.44546875 8.32625 -17.78546875 7.99625 -17.10546875 7.65625 C-16.63895668 5.53048218 -16.63895668 5.53048218 -16.48046875 3.09375 C-16.40570313 2.26746094 -16.3309375 1.44117187 -16.25390625 0.58984375 C-16.20492188 -0.04824219 -16.1559375 -0.68632813 -16.10546875 -1.34375 C-10.20313732 -3.31119381 -5.52911405 -2.43235975 0 0 Z" transform="translate(284.10546875,110.34375)"/><path fill="#2E2924" d="M0 0 C2.52460924 2.52460924 2.64133835 4.28021196 3.375 7.75 C5.97464867 18.54755065 12.84336876 25.15534176 22 31 C27.68921973 35.00106341 27.68921973 35.00106341 28.875 38.8125 C28.91625 39.534375 28.9575 40.25625 29 41 C23.85959739 44.42693508 18.05717872 44.37389992 12 44 C6.06128562 42.00267453 -0.90850507 39.1337243 -3.89135742 33.23828125 C-4.12701416 32.60277344 -4.3626709 31.96726562 -4.60546875 31.3125 C-4.99702148 30.26449219 -4.99702148 30.26449219 -5.39648438 29.1953125 C-5.65751953 28.47085937 -5.91855469 27.74640625 -6.1875 27 C-6.46013672 26.27554687 -6.73277344 25.55109375 -7.01367188 24.8046875 C-8.13810391 21.74983957 -9 19.2801863 -9 16 C-8.34 16 -7.68 16 -7 16 C-7 13.69 -7 11.38 -7 9 C-9.31 9 -11.62 9 -14 9 C-13.01083735 6.40144299 -12.503047 5.23863709 -9.94140625 4.0234375 C-9.15636719 3.80945313 -8.37132812 3.59546875 -7.5625 3.375 C-4.48121185 2.51203627 -2.72968097 1.81978731 0 0 Z" transform="translate(288,460)"/><path fill="#C58977" d="M0 0 C0.75410156 0.05285156 1.50820313 0.10570312 2.28515625 0.16015625 C5.44914578 0.40181087 8.22951798 0.74317266 11.25 1.75 C12.77870732 1.93915252 14.31235889 2.08999674 15.84765625 2.21484375 C17.17313477 2.33182617 17.17313477 2.33182617 18.52539062 2.45117188 C20.3870178 2.60902534 22.24900777 2.76265589 24.11132812 2.91210938 C24.99369141 2.99138672 25.87605469 3.07066406 26.78515625 3.15234375 C27.99764038 3.25276978 27.99764038 3.25276978 29.23461914 3.35522461 C31.25 3.75 31.25 3.75 33.25 5.75 C33.82008229 12.66407496 30.87146106 18.09731355 27.25 23.75 C22.67755569 22.44840449 19.408984 20.67447099 15.625 17.8125 C14.70460938 17.12285156 13.78421875 16.43320313 12.8359375 15.72265625 C11.23914466 14.50455899 9.65733248 13.26616779 8.1015625 11.99609375 C6.20716101 10.47083498 6.20716101 10.47083498 3.25 10.75 C1.67726432 13.5924854 1.67726432 13.5924854 1.25 16.75 C-1.0625 16.9375 -1.0625 16.9375 -3.75 16.75 C-4.77196992 15.77246356 -5.76979625 14.7694119 -6.75 13.75 C-10.1978953 12.30669499 -13.30999455 11.66966468 -17 11.375 C-20.75 10.75 -20.75 10.75 -22.25 8.6875 C-22.415 8.048125 -22.58 7.40875 -22.75 6.75 C-24.07 7.08 -25.39 7.41 -26.75 7.75 C-27.08 6.76 -27.41 5.77 -27.75 4.75 C-24.59343086 2.87944051 -22.39314294 2.56317216 -18.75 2.75 C-15.61910413 2.96731188 -15.61910413 2.96731188 -12.609375 1.234375 C-8.31675981 -0.68398615 -4.6031968 -0.42577562 0 0 Z" transform="translate(297.75,197.25)"/><path fill="#0B0907" d="M0 0 C1.35622245 0.96873032 2.69417053 1.96434215 4 3 C8.10281481 3.41865457 9.51131349 3.32579101 13 1 C13.22429687 1.63421875 13.44859375 2.2684375 13.6796875 2.921875 C14.83372405 5.20864531 14.83372405 5.20864531 17.3203125 5.828125 C25.48932989 7.05689085 32.82900289 7.36183285 41 6 C41.495 7.485 41.495 7.485 42 9 C41.34 9.33 40.68 9.66 40 10 C40.495 10.99 40.495 10.99 41 12 C24.19582986 18.34761233 9.35439686 16.60466027 -7 10 C-7.33 10.66 -7.66 11.32 -8 12 C-12.21102219 12.6141074 -15.61145744 12.87400649 -19.30859375 10.546875 C-22.35779289 7.88372125 -24.74787782 5.37818327 -27 2 C-26.00419922 2.28617187 -26.00419922 2.28617187 -24.98828125 2.578125 C-22.29419487 3.25459633 -19.77254172 3.80013886 -17 4 C-14.03070851 2.34294424 -14.03070851 2.34294424 -12 0 C-7.84794624 -1.38401792 -4.24892166 -0.90716028 0 0 Z" transform="translate(323,477)"/><path fill="#39332F" d="M0 0 C3.32874034 3.22136162 3.83645277 6.42067769 4 11 C2.5625 13.4375 2.5625 13.4375 1 15 C0.34 14.71125 -0.32 14.4225 -1 14.125 C-8.39864669 11.35050749 -15.10642106 10.40347294 -23 11 C-23.33 11.33 -23.66 11.66 -24 12 C-25.66617115 12.04063832 -27.33388095 12.042721 -29 12 C-30.70084819 17.32932432 -31.52013969 22.43109483 -32 28 C-32.33 28 -32.66 28 -33 28 C-34.50466138 18.03161836 -35.36277387 9.88209422 -30 1 C-29.34 1 -28.68 1 -28 1 C-27.7525 0.38125 -27.505 -0.2375 -27.25 -0.875 C-25.72913186 -3.46047584 -24.79953781 -3.98905579 -22 -5 C-13.30865312 -7.17283672 -6.89348152 -5.35277252 0 0 Z" transform="translate(288,98)"/><path fill="#253564" d="M0 0 C3.56365746 2.82485043 4.53090548 5.08510394 5.0625 9.5859375 C5.124375 10.25882812 5.18625 10.93171875 5.25 11.625 C5.32734375 12.305625 5.4046875 12.98625 5.484375 13.6875 C5.75455286 16.12874995 6 18.54212398 6 21 C7.65 21.33 9.3 21.66 11 22 C10.01 22.33 9.02 22.66 8 23 C7.67 25.31 7.34 27.62 7 30 C7.66 30 8.32 30 9 30 C9.02746229 31.68740514 9.04660111 33.3749463 9.0625 35.0625 C9.07410156 36.00222656 9.08570313 36.94195312 9.09765625 37.91015625 C9 41 9 41 8.51147461 44.12817383 C7.93984521 48.45536748 7.79259362 52.68059095 7.71875 57.0390625 C7.70034058 57.88294525 7.68193115 58.726828 7.66296387 59.59628296 C7.58488187 63.17897863 7.51658129 66.76184296 7.44775391 70.34472656 C7.39585411 72.97209406 7.33869411 75.59931131 7.28125 78.2265625 C7.26767456 79.03187408 7.25409912 79.83718567 7.2401123 80.66690063 C7.15384271 84.57766762 6.86836852 88.17065104 6 92 C5.86494944 93.39980463 5.75863273 94.80273043 5.68359375 96.20703125 C5.64169922 96.95791016 5.59980469 97.70878906 5.55664062 98.48242188 C5.51732422 99.25134766 5.47800781 100.02027344 5.4375 100.8125 C5.39431641 101.60076172 5.35113281 102.38902344 5.30664062 103.20117188 C5.20121679 105.13394215 5.10016906 107.06695026 5 109 C2.81291695 104.6258339 1.88410256 102.13111148 1.9375 97.15625 C1.94579834 95.94251709 1.95409668 94.72878418 1.96264648 93.47827148 C1.97497314 92.16544189 1.9872998 90.8526123 2 89.5 C2.06652275 79.45868453 1.92271526 69.47035212 1.4375 59.4375 C0.88291453 47.43795442 0.85650789 35.37699179 2.31323242 23.43139648 C2.94426622 18.25086763 2.95666443 14.17443626 1.5625 9.0625 C0 3.1838565 0 3.1838565 0 0 Z" transform="translate(260,251)"/><path fill="#322E29" d="M0 0 C0.42410156 0.37511719 0.84820312 0.75023437 1.28515625 1.13671875 C1.87167969 1.64847656 2.45820313 2.16023438 3.0625 2.6875 C3.63097656 3.18636719 4.19945312 3.68523437 4.78515625 4.19921875 C5.88150391 5.09060547 5.88150391 5.09060547 7 6 C7.47703369 6.40460449 7.95406738 6.80920898 8.44555664 7.22607422 C13.35721353 11.10876687 18.25907 12.43805663 24.3125 13.75 C26.10063934 14.15980845 27.8884193 14.57118917 29.67578125 14.984375 C30.45864502 15.15678711 31.24150879 15.32919922 32.0480957 15.50683594 C34 16 34 16 36 17 C36.4140625 19.06640625 36.4140625 19.06640625 36.625 21.5625 C36.69976562 22.38878906 36.77453125 23.21507812 36.8515625 24.06640625 C36.90054688 24.70449219 36.94953125 25.34257812 37 26 C35.35 26.33 33.7 26.66 32 27 C33.32 26.34 34.64 25.68 36 25 C35.34 24.34 34.68 23.68 34 23 C31.99598989 23.30830925 29.99708656 23.64963394 28 24 C20.95289064 24.4949115 15.38601556 24.1349531 9 21 C8.34 20.01 7.68 19.02 7 18 C3.94570927 16.78715124 3.94570927 16.78715124 1 16 C1 15.34 1 14.68 1 14 C0.195625 13.731875 -0.60875 13.46375 -1.4375 13.1875 C-2.283125 12.795625 -3.12875 12.40375 -4 12 C-4.33 11.01 -4.66 10.02 -5 9 C-5.66 9 -6.32 9 -7 9 C-7 8.34 -7 7.68 -7 7 C-5.33333333 5.66666667 -3.66666667 4.33333333 -2 3 C-2 2.34 -2 1.68 -2 1 C-1.34 0.67 -0.68 0.34 0 0 Z" transform="translate(329,461)"/><path fill="#CFA895" d="M0 0 C2.19031363 0.87445754 2.19031363 0.87445754 5.89453125 0.65625 C6.55453125 -0.00375 7.21453125 -0.66375 7.89453125 -1.34375 C9.56116682 6.57276895 9.55278349 14.01377481 6.89453125 21.65625 C4.21525784 17.63733988 4.73851877 15.41463077 4.89453125 10.65625 C4.58515625 11.790625 4.27578125 12.925 3.95703125 14.09375 C2.89453125 17.65625 2.89453125 17.65625 1.89453125 18.65625 C0.21269177 18.88912008 -1.47671035 19.06889166 -3.16796875 19.21875 C-4.54662109 19.34443359 -4.54662109 19.34443359 -5.953125 19.47265625 C-6.66339844 19.53324219 -7.37367188 19.59382813 -8.10546875 19.65625 C-9.0397052 16.64593256 -9.14996786 15.78974732 -8.10546875 12.65625 C-8.76546875 12.65625 -9.42546875 12.65625 -10.10546875 12.65625 C-10.10546875 15.29625 -10.10546875 17.93625 -10.10546875 20.65625 C-10.43546875 20.65625 -10.76546875 20.65625 -11.10546875 20.65625 C-11.43546875 17.02625 -11.76546875 13.39625 -12.10546875 9.65625 C-14.41546875 9.32625 -16.72546875 8.99625 -19.10546875 8.65625 C-18.44546875 8.32625 -17.78546875 7.99625 -17.10546875 7.65625 C-16.63895668 5.53048218 -16.63895668 5.53048218 -16.48046875 3.09375 C-16.40570313 2.26746094 -16.3309375 1.44117187 -16.25390625 0.58984375 C-16.20492188 -0.04824219 -16.1559375 -0.68632813 -16.10546875 -1.34375 C-10.20313732 -3.31119381 -5.52911405 -2.43235975 0 0 Z" transform="translate(284.10546875,110.34375)"/><path fill="#1B1814" d="M0 0 C4 1 4 1 7 2.5625 C12.73137981 5.11670187 20.11971376 4.96009541 26 3 C26 3.66 26 4.32 26 5 C26.66 5 27.32 5 28 5 C29.92462024 6.80045119 31.71305434 8.6891422 33.5 10.625 C35.19944086 12.18282079 36.90480222 13.06077341 39 14 C36.68164713 15.45970366 35.38987957 16.03077997 32.625 15.8125 C30 15 30 15 27.25 13.375 C22.9367993 11.55018432 19.47852844 11.68227913 15 13 C14.29875 13.70125 13.5975 14.4025 12.875 15.125 C12.25625 15.74375 11.6375 16.3625 11 17 C5.99194381 16.90725822 2.33181529 15.43004272 -2 13 C-1.34 8.71 -0.68 4.42 0 0 Z" transform="translate(296,465)"/><path fill="#1F2229" d="M0 0 C1.875 0.125 1.875 0.125 4 1 C6.89489211 4.41183713 7.55370749 7.55524637 7.3359375 12.01953125 C6.43650692 17.32198828 2.93738169 20.27652938 -1.1875 23.3125 C-6.7203738 26.74794451 -11.40070498 27.80656471 -17.7890625 26.375 C-20.22886979 25.66023955 -22.61579177 24.88101223 -25 24 C-24.505 22.515 -24.505 22.515 -24 21 C-23.278125 20.9175 -22.55625 20.835 -21.8125 20.75 C-18.44778969 19.85274392 -16.64326193 18.21462486 -14 16 C-13.34 16 -12.68 16 -12 16 C-12 16.66 -12 17.32 -12 18 C-11.01 17.67 -10.02 17.34 -9 17 C-9 17.66 -9 18.32 -9 19 C-8.34 19 -7.68 19 -7 19 C-7 16.69 -7 14.38 -7 12 C-6.360625 11.7525 -5.72125 11.505 -5.0625 11.25 C-2.81258459 10.18437567 -2.81258459 10.18437567 -2.25 7.875 C-2.1675 7.25625 -2.085 6.6375 -2 6 C-1.34 6 -0.68 6 0 6 C-0.185625 5.195625 -0.37125 4.39125 -0.5625 3.5625 C-0.706875 2.716875 -0.85125 1.87125 -1 1 C-0.67 0.67 -0.34 0.34 0 0 Z" transform="translate(348,202)"/><path fill="#D29B8A" d="M0 0 C0.89138672 0.09087891 0.89138672 0.09087891 1.80078125 0.18359375 C2.62964844 0.26738281 3.45851563 0.35117188 4.3125 0.4375 C5.22 0.53417969 6.1275 0.63085938 7.0625 0.73046875 C9.01677692 0.90978405 10.9764714 1.03765648 12.9375 1.11328125 C20.28348646 1.46261485 20.28348646 1.46261485 24 4.25 C29 11.125 29 11.125 29 16 C28.01 16 27.02 16 26 16 C26 14.68 26 13.36 26 12 C19.38330397 12.41286445 13.36181435 13.04251866 7 15 C4.3361995 15.42582957 1.68441704 15.71742979 -1 16 C-0.9278125 15.01257813 -0.855625 14.02515625 -0.78125 13.0078125 C-0.6884375 11.72648438 -0.595625 10.44515625 -0.5 9.125 C-0.4071875 7.84882813 -0.314375 6.57265625 -0.21875 5.2578125 C-0.10123196 3.50763316 0 1.75412035 0 0 Z" transform="translate(296,216)"/><path fill="#3D3D3B" d="M0 0 C0 3.3 0 6.6 0 10 C-0.66 10 -1.32 10 -2 10 C-2 7.69 -2 5.38 -2 3 C-2.66 3 -3.32 3 -4 3 C-4 3.66 -4 4.32 -4 5 C-4.9590625 5.7115625 -4.9590625 5.7115625 -5.9375 6.4375 C-8.28372963 7.9091365 -8.28372963 7.9091365 -9 11 C-7.35 10.67 -5.7 10.34 -4 10 C-4.33 10.66 -4.66 11.32 -5 12 C-7.32156597 12.40729228 -9.6568787 12.74438677 -12 13 C-12 12.34 -12 11.68 -12 11 C-13.32 11 -14.64 11 -16 11 C-16.33 11.66 -16.66 12.32 -17 13 C-19.42897896 13.34442981 -21.745635 13.56019898 -24.1875 13.6875 C-25.50105469 13.77386719 -26.81460937 13.86023438 -28.16796875 13.94921875 C-31.61753948 13.99493172 -34.63217044 13.69661171 -38 13 C-38 12.67 -38 12.34 -38 12 C-36.02 11.34 -34.04 10.68 -32 10 C-32.66 8.68 -33.32 7.36 -34 6 C-38.62 6 -43.24 6 -48 6 C-48 5.67 -48 5.34 -48 5 C-47.34217529 4.9906543 -46.68435059 4.98130859 -46.0065918 4.97167969 C-32.87461 4.73870949 -20.44569611 3.97002081 -7.66796875 0.83984375 C-4 0 -4 0 0 0 Z" transform="translate(321,269)"/><path fill="#7F564A" d="M0 0 C0.66 0.33 1.32 0.66 2 1 C2 4.63 2 8.26 2 12 C0.35 12 -1.3 12 -3 12 C-1.36526484 15.12474627 -1.36526484 15.12474627 1.125 15.6875 C2.053125 15.8421875 2.053125 15.8421875 3 16 C3 16.66 3 17.32 3 18 C4.65 18 6.3 18 8 18 C7.67 18.99 7.34 19.98 7 21 C5.68 21 4.36 21 3 21 C3 21.66 3 22.32 3 23 C5.65404064 24.04385696 5.65404064 24.04385696 9 24 C11.6317915 22.29275002 13.80915266 20.23621992 16 18 C16.33 18.99 16.66 19.98 17 21 C15.38916963 23.14777382 13.81973296 25.05256648 12 27 C11.195625 27.928125 11.195625 27.928125 10.375 28.875 C9 30 9 30 6 30 C6.33 30.556875 6.66 31.11375 7 31.6875 C8.1309601 34.30284522 8.15662974 36.1806646 8 39 C7.67 38.34 7.34 37.68 7 37 C4.67843403 36.59270772 2.3431213 36.25561323 0 36 C-0.33 34.35 -0.66 32.7 -1 31 C0.98 30.34 2.96 29.68 5 29 C4.2575 28.2575 3.515 27.515 2.75 26.75 C1.8425 25.8425 0.935 24.935 0 24 C-0.70125 23.401875 -1.4025 22.80375 -2.125 22.1875 C-6.96669444 16.53885649 -7.44893564 10.18297027 -7 3 C-4.69631264 1.93347808 -2.35981813 0.93578995 0 0 Z" transform="translate(268,125)"/><path fill="#292A32" d="M0 0 C4.05651388 0.52114935 6.05772627 1.56323035 9 4.375 C11.84768338 7.00155645 14.55626212 9.17051425 18 11 C14.82535946 12.58732027 11.59681085 11.59252793 8.1875 11.125 C7.47529297 11.03347656 6.76308594 10.94195312 6.02929688 10.84765625 C2.32145951 10.36059528 -1.34441742 9.79000802 -5 9 C-4.67 9.66 -4.34 10.32 -4 11 C-3.69547045 16.17700233 -4.41413412 20.14328574 -6 25 C-0.555 24.01 -0.555 24.01 5 23 C4.34 23.66 3.68 24.32 3 25 C2.35232207 27.57061311 2.35232207 27.57061311 2 30 C1.01 30.33 0.02 30.66 -1 31 C-1.33 29.35 -1.66 27.7 -2 26 C-4.31 26.66 -6.62 27.32 -9 28 C-10 27 -10 27 -10.0625 23.4375 C-10.041875 22.303125 -10.02125 21.16875 -10 20 C-9.34 19.67 -8.68 19.34 -8 19 C-7.59270772 16.67843403 -7.25561323 14.3431213 -7 12 C-7.99 11.67 -8.98 11.34 -10 11 C-11.75 8.625 -11.75 8.625 -13 6 C-12.67 5.01 -12.34 4.02 -12 3 C-9.525 3.99 -9.525 3.99 -7 5 C-7 5.66 -7 6.32 -7 7 C-5.35 7 -3.7 7 -2 7 C-2.33 6.01 -2.66 5.02 -3 4 C-1.5625 1.8125 -1.5625 1.8125 0 0 Z" transform="translate(301,207)"/><path fill="#B67765" d="M0 0 C0.75410156 0.05285156 1.50820313 0.10570312 2.28515625 0.16015625 C5.44914578 0.40181087 8.22951798 0.74317266 11.25 1.75 C12.77870732 1.93915252 14.31235889 2.08999674 15.84765625 2.21484375 C17.17313477 2.33182617 17.17313477 2.33182617 18.52539062 2.45117188 C20.3870178 2.60902534 22.24900777 2.76265589 24.11132812 2.91210938 C24.99369141 2.99138672 25.87605469 3.07066406 26.78515625 3.15234375 C27.99764038 3.25276978 27.99764038 3.25276978 29.23461914 3.35522461 C31.25 3.75 31.25 3.75 33.25 5.75 C33.375 8.375 33.375 8.375 33.25 10.75 C30.75 9.375 30.75 9.375 28.25 7.75 C28.25 7.09 28.25 6.43 28.25 5.75 C24.52215931 5.49425123 20.79303066 5.27509773 17.0625 5.0625 C15.47985352 4.95325195 15.47985352 4.95325195 13.86523438 4.84179688 C12.84365234 4.78701172 11.82207031 4.73222656 10.76953125 4.67578125 C9.36344604 4.58937378 9.36344604 4.58937378 7.92895508 4.5012207 C4.68437878 4.80252602 2.9157009 5.92862325 0.25 7.75 C-0.74 8.245 -0.74 8.245 -1.75 8.75 C-1.75 6.77 -1.75 4.79 -1.75 2.75 C-4.04191849 2.71747064 -4.04191849 2.71747064 -6.75 3.75 C-8.18594733 5.39321006 -8.18594733 5.39321006 -9.5625 7.3125 C-12.14914866 10.62178941 -12.14914866 10.62178941 -14.91015625 11.2109375 C-17.125 11.1875 -17.125 11.1875 -20.75 10.75 C-21.41 9.43 -22.07 8.11 -22.75 6.75 C-24.07 7.08 -25.39 7.41 -26.75 7.75 C-27.08 6.76 -27.41 5.77 -27.75 4.75 C-24.59343086 2.87944051 -22.39314294 2.56317216 -18.75 2.75 C-15.61910413 2.96731188 -15.61910413 2.96731188 -12.609375 1.234375 C-8.31675981 -0.68398615 -4.6031968 -0.42577562 0 0 Z" transform="translate(297.75,197.25)"/><path fill="#100F0F" d="M0 0 C0 1.32 0 2.64 0 4 C-0.66 4 -1.32 4 -2 4 C-2 3.01 -2 2.02 -2 1 C-5.18234105 2.75454385 -5.18234105 2.75454385 -8 5 C-8.23075082 6.34747084 -8.41153063 7.70377565 -8.5625 9.0625 C-8.706875 10.361875 -8.85125 11.66125 -9 13 C-9.66 12.67 -10.32 12.34 -11 12 C-11.73075648 9.6859378 -12.40138258 7.35171131 -13 5 C-13.11320856 10.08303686 -13.11320856 10.08303686 -12 15 C-15.13498292 16.85776765 -17.37471432 17.20140476 -21 17 C-22.70084819 22.32932432 -23.52013969 27.43109483 -24 33 C-24.33 33 -24.66 33 -25 33 C-26.50466138 23.03161836 -27.36277387 14.88209422 -22 6 C-21.34 6 -20.68 6 -20 6 C-19.7525 5.38125 -19.505 4.7625 -19.25 4.125 C-17.72913186 1.53952416 -16.79953781 1.01094421 -14 0 C-9.03322825 -1.24169294 -4.98713567 -0.77386588 0 0 Z" transform="translate(280,93)"/><path fill="#30343C" d="M0 0 C0.56589844 0.29003906 1.13179688 0.58007812 1.71484375 0.87890625 C4.71576959 2.35115534 7.79393188 3.61737129 10.87890625 4.90234375 C13.03650628 6.01889183 14.39246167 7.19729727 16 9 C15.67 9.99 15.34 10.98 15 12 C15.31052686 14.30336625 15.31052686 14.30336625 15.9375 16.6875 C16.13214844 17.49574219 16.32679688 18.30398437 16.52734375 19.13671875 C16.68332031 19.75160156 16.83929688 20.36648437 17 21 C16.34 20.34 15.68 19.68 15 19 C15 18.01 15 17.02 15 16 C14.34 16 13.68 16 13 16 C13 17.65 13 19.3 13 21 C11.68 21.33 10.36 21.66 9 22 C8.67 24.31 8.34 26.62 8 29 C6.35 28.67 4.7 28.34 3 28 C4 23 5 18 6 13 C4.02 13.99 4.02 13.99 2 15 C1.87625 14.030625 1.7525 13.06125 1.625 12.0625 C1.315625 10.5465625 1.315625 10.5465625 1 9 C0.34 8.67 -0.32 8.34 -1 8 C-2.34275169 7.01268258 -3.67732273 6.01405257 -5 5 C-1.535 4.505 -1.535 4.505 2 4 C1.34 2.68 0.68 1.36 0 0 Z" transform="translate(333,192)"/><path fill="#25272D" d="M0 0 C1.8125 0.0625 1.8125 0.0625 4 1 C5.75 4.5625 5.75 4.5625 7 8 C7.99 7.67 8.98 7.34 10 7 C10.45851528 16.01746725 10.45851528 16.01746725 7 20 C2.55201754 23.51382044 -1.31830418 26.15678013 -7 27 C-7.99 25.02 -8.98 23.04 -10 21 C-8.02 21.33 -6.04 21.66 -4 22 C-3.3490741 20.75264433 -2.70448331 19.50198168 -2.0625 18.25 C-1.70285156 17.55390625 -1.34320313 16.8578125 -0.97265625 16.140625 C1.40683937 10.9038234 1.83316068 5.49948204 0 0 Z" transform="translate(329,198)"/><path fill="#D6A190" d="M0 0 C0.82951172 0.04382813 1.65902344 0.08765625 2.51367188 0.1328125 C3.80821289 0.21015625 3.80821289 0.21015625 5.12890625 0.2890625 C5.98806641 0.33289063 6.84722656 0.37671875 7.73242188 0.421875 C15.80022954 0.87252058 15.80022954 0.87252058 18.69140625 1.9140625 C19.68140625 3.3990625 19.68140625 3.3990625 20.69140625 4.9140625 C21.35140625 4.2540625 22.01140625 3.5940625 22.69140625 2.9140625 C22.69140625 5.5540625 22.69140625 8.1940625 22.69140625 10.9140625 C19.38130051 12.01743108 17.01000865 12.04937385 13.69140625 10.9140625 C12.37890625 8.8515625 12.37890625 8.8515625 11.69140625 6.9140625 C10.70140625 6.9140625 9.71140625 6.9140625 8.69140625 6.9140625 C8.36140625 7.5740625 8.03140625 8.2340625 7.69140625 8.9140625 C7.07265625 8.4809375 6.45390625 8.0478125 5.81640625 7.6015625 C1.62568299 5.33857194 -2.73081845 4.16739515 -7.30859375 2.9140625 C-7.30859375 2.2540625 -7.30859375 1.5940625 -7.30859375 0.9140625 C-4.4306159 -0.04526345 -2.95224604 -0.1594446 0 0 Z" transform="translate(307.30859375,201.0859375)"/><path fill="#3A342E" d="M0 0 C2.05832429 3.92952819 3.68256255 7.76537962 5 12 C5.33 12.99 5.66 13.98 6 15 C6.66 15 7.32 15 8 15 C8 15.99 8 16.98 8 18 C5.05602989 19.47198506 3.26675998 19.46497679 0 19 C-2.1279594 16.89901474 -3.68278413 15.09290051 -5.375 12.6875 C-5.82488281 12.09259766 -6.27476562 11.49769531 -6.73828125 10.88476562 C-10 6.44823328 -10 6.44823328 -10 3 C-6.27034861 0.96564469 -4.33094958 0 0 0 Z" transform="translate(292,472)"/><path fill="#1F2B51" d="M0 0 C0.99 0 1.98 0 3 0 C3.02753831 1.5207267 3.04663375 3.04160674 3.0625 4.5625 C3.07410156 5.40941406 3.08570313 6.25632812 3.09765625 7.12890625 C3 10 3 10 2.51147461 13.11450195 C1.94123563 17.44641289 1.79266965 21.67610309 1.71875 26.0390625 C1.70034058 26.88294525 1.68193115 27.726828 1.66296387 28.59628296 C1.58488187 32.17897863 1.51658129 35.76184296 1.44775391 39.34472656 C1.39585411 41.97209406 1.33869411 44.59931131 1.28125 47.2265625 C1.26767456 48.03187408 1.25409912 48.83718567 1.2401123 49.66690063 C1.15384271 53.57766762 0.86836852 57.17065104 0 61 C-0.13505056 62.39980463 -0.24136727 63.80273043 -0.31640625 65.20703125 C-0.35830078 65.95791016 -0.40019531 66.70878906 -0.44335938 67.48242188 C-0.48267578 68.25134766 -0.52199219 69.02027344 -0.5625 69.8125 C-0.62727539 70.99489258 -0.62727539 70.99489258 -0.69335938 72.20117188 C-0.79878321 74.13394215 -0.89983094 76.06695026 -1 78 C-4.13835377 71.72329247 -4.13835377 71.72329247 -4.125 67.9375 C-4.12757813 67.22464844 -4.13015625 66.51179688 -4.1328125 65.77734375 C-4.02129816 63.44538204 -3.80073453 61.19053325 -3.5234375 58.875 C-2.91296472 53.61198468 -2.69832108 48.35473477 -2.5 43.0625 C-2.18668339 34.73640109 -1.67434496 26.49563308 -0.4375 18.25 C0.36106364 12.21086251 0.07682176 6.07745461 0 0 Z" transform="translate(266,282)"/><path fill="#7A73A8" d="M0 0 C0.33 0 0.66 0 1 0 C1.66 4.95 2.32 9.9 3 15 C3.66 15 4.32 15 5 15 C5.19335938 16.24136719 5.38671875 17.48273438 5.5859375 18.76171875 C5.84865364 20.40369461 6.11169141 22.04561904 6.375 23.6875 C6.50132812 24.50412109 6.62765625 25.32074219 6.7578125 26.16210938 C7.44341114 30.395681 8.37387477 34.01879686 10 38 C10.1953125 40.45703125 10.1953125 40.45703125 10.125 42.8125 C10.10695313 43.60269531 10.08890625 44.39289063 10.0703125 45.20703125 C10.03550781 46.09455078 10.03550781 46.09455078 10 47 C8.68 47 7.36 47 6 47 C6.03480469 46.33613281 6.06960938 45.67226562 6.10546875 44.98828125 C6.26936975 39.64198681 6.16801402 36.48801987 3 32 C3 30.68 3 29.36 3 28 C2.35804688 27.75507813 1.71609375 27.51015625 1.0546875 27.2578125 C-1 26 -1 26 -1.6796875 24.1796875 C-2.3750078 15.97490793 -1.21626176 8.10171054 0 0 Z" transform="translate(253,110)"/><path fill="#171B23" d="M0 0 C0.66 0 1.32 0 2 0 C2 0.99 2 1.98 2 3 C3.74985354 3.47970123 5.49988891 3.95873924 7.25 4.4375 C8.71179688 4.83775391 8.71179688 4.83775391 10.203125 5.24609375 C12.46372653 5.85544584 14.72622009 6.44238255 17 7 C15.79157144 11.43090471 14.48331435 13.98112756 11 17 C7.16336928 15.65070536 4.34827431 13.92248975 1.1875 11.375 C0.39730469 10.74335938 -0.39289063 10.11171875 -1.20703125 9.4609375 C-2.09455078 8.73777344 -2.09455078 8.73777344 -3 8 C-2.45276317 4.62537285 -1.9451 2.91765 0 0 Z" transform="translate(257,155)"/><path fill="#0A0B0E" d="M0 0 C0.33 2.31 0.66 4.62 1 7 C1.66 7 2.32 7 3 7 C3.33 7.66 3.66 8.32 4 9 C4.99 7.02 5.98 5.04 7 3 C7.66 3 8.32 3 9 3 C9.33 6.63 9.66 10.26 10 14 C6.38132441 15.2062252 3.07493749 15.10816918 -0.6875 15.0625 C-1.38939453 15.05798828 -2.09128906 15.05347656 -2.81445312 15.04882812 C-4.54300538 15.03706927 -6.27151365 15.01913454 -8 15 C-8 12.03 -8 9.06 -8 6 C-8.66 5.67 -9.32 5.34 -10 5 C-9.01 5 -8.02 5 -7 5 C-7 5.99 -7 6.98 -7 8 C-6.34 7.67 -5.68 7.34 -5 7 C-4.67 6.01 -4.34 5.02 -4 4 C-3.67 3.01 -3.34 2.02 -3 1 C-1 0 -1 0 0 0 Z" transform="translate(282,223)"/><path fill="#191919" d="M0 0 C1.14662109 0.14888672 1.14662109 0.14888672 2.31640625 0.30078125 C5.65100719 0.90874717 8.45026441 2.14237814 11.4375 3.6875 C11.4375 5.3375 11.4375 6.9875 11.4375 8.6875 C7.60760894 10.48980168 4.65628192 10.88372241 0.4375 10.6875 C0.4375 8.6875 0.4375 8.6875 2.4375 6.6875 C1.179375 7.038125 -0.07875 7.38875 -1.375 7.75 C-4.50966388 8.62359485 -5.34532108 8.75989297 -8.5625 7.6875 C-8.5625 5.7075 -8.5625 3.7275 -8.5625 1.6875 C-5.45674795 -0.15897218 -3.56447682 -0.50059488 0 0 Z" transform="translate(317.5625,449.3125)"/><path fill="#292929" d="M0 0 C2.3129482 2.3129482 2.49580975 3.47904875 3.125 6.625 C3.29257812 7.44226563 3.46015625 8.25953125 3.6328125 9.1015625 C3.75398438 9.72804688 3.87515625 10.35453125 4 11 C2.73308493 11.67408308 1.46129251 12.33900497 0.1875 13 C-0.52019531 13.37125 -1.22789062 13.7425 -1.95703125 14.125 C-4 15 -4 15 -7 15 C-7 13.02 -7 11.04 -7 9 C-9.31 9 -11.62 9 -14 9 C-13.01083735 6.40144299 -12.503047 5.23863709 -9.94140625 4.0234375 C-9.15636719 3.80945313 -8.37132812 3.59546875 -7.5625 3.375 C-4.48121185 2.51203627 -2.72968097 1.81978731 0 0 Z" transform="translate(288,460)"/><path fill="#3F3933" d="M0 0 C2.90703649 0.99669822 4.88481899 1.89633709 7.1875 3.96875 C10.58453045 6.42216088 13.76788453 7.09202428 17.8125 7.75 C18.50537109 7.87503906 19.19824219 8.00007813 19.91210938 8.12890625 C21.60573839 8.43259145 23.30259781 8.71816718 25 9 C24 11 24 11 22.328125 11.6015625 C14.37085194 12.96337769 7.15013655 13.1155367 0.390625 8.38671875 C-1 7 -1 7 -2 4 C-1.34 4 -0.68 4 0 4 C0 2.68 0 1.36 0 0 Z" transform="translate(339,471)"/><path fill="#333238" d="M0 0 C4.05651388 0.52114935 6.05772627 1.56323035 9 4.375 C11.84768338 7.00155645 14.55626212 9.17051425 18 11 C14.83946916 12.58026542 11.64328902 11.59324956 8.25 11.125 C7.54617188 11.03347656 6.84234375 10.94195312 6.1171875 10.84765625 C2.06317139 10.31264669 -1.97015681 9.69698546 -6 9 C-6 8.34 -6 7.68 -6 7 C-4.68 7 -3.36 7 -2 7 C-2.33 6.01 -2.66 5.02 -3 4 C-1.5625 1.8125 -1.5625 1.8125 0 0 Z" transform="translate(301,207)"/><path fill="#BF8772" d="M0 0 C0.66 0.33 1.32 0.66 2 1 C2.625 4.0625 2.625 4.0625 3 7 C4.0209375 7.061875 4.0209375 7.061875 5.0625 7.125 C8.05897352 8.01756658 8.92423919 8.68181515 11.125 10.75 C15.47747247 14.74539602 20.58289317 16.78613717 26 19 C26 19.33 26 19.66 26 20 C20.22621075 19.5188509 16.04140164 17.81532819 11 15 C10.67 15.66 10.34 16.32 10 17 C9.67386719 16.50628906 9.34773438 16.01257813 9.01171875 15.50390625 C8.57472656 14.86324219 8.13773437 14.22257813 7.6875 13.5625 C7.04361328 12.60537109 7.04361328 12.60537109 6.38671875 11.62890625 C4.9965948 9.7114316 4.9965948 9.7114316 2 9 C2.33 10.32 2.66 11.64 3 13 C2.01 13.495 2.01 13.495 1 14 C0.01 15.485 0.01 15.485 -1 17 C-2.54384132 15.45615868 -2.30395806 13.82645761 -2.5 11.6875 C-2.77707425 8.69410854 -3.20340984 5.90091582 -4 3 C-2.68 2.01 -1.36 1.02 0 0 Z" transform="translate(278,152)"/><path fill="#965B4D" d="M0 0 C1.16885742 0.0918457 1.16885742 0.0918457 2.36132812 0.18554688 C4.26303159 0.33721648 6.1630186 0.51015809 8.0625 0.6875 C8.0625 1.0175 8.0625 1.3475 8.0625 1.6875 C1.83067361 2.72613773 -3.68442761 2.52038874 -9.9375 1.6875 C-10.24429687 2.30238281 -10.55109375 2.91726562 -10.8671875 3.55078125 C-11.59117444 4.99611285 -12.32318728 6.43744749 -13.0625 7.875 C-14.00995818 9.50214939 -14.00995818 9.50214939 -13.9375 10.6875 C-16.2475 10.6875 -18.5575 10.6875 -20.9375 10.6875 C-21.5975 9.3675 -22.2575 8.0475 -22.9375 6.6875 C-24.2575 7.0175 -25.5775 7.3475 -26.9375 7.6875 C-27.2675 6.6975 -27.5975 5.7075 -27.9375 4.6875 C-24.78093086 2.81694051 -22.58064294 2.50067216 -18.9375 2.6875 C-15.80753903 2.90592602 -15.80753903 2.90592602 -12.80859375 1.16796875 C-8.45939634 -0.77835716 -4.65777577 -0.45100999 0 0 Z" transform="translate(297.9375,197.3125)"/><path fill="#C99888" d="M0 0 C1.29743778 3.89231333 0.7290731 5.31632252 -1 9 C-3.9375 11.1875 -3.9375 11.1875 -7 13 C-8.79394446 14.62351109 -8.79394446 14.62351109 -10 16 C-11.98 15.34 -13.96 14.68 -16 14 C-16 13.34 -16 12.68 -16 12 C-15.360625 11.87625 -14.72125 11.7525 -14.0625 11.625 C-13.381875 11.41875 -12.70125 11.2125 -12 11 C-11.67 10.34 -11.34 9.68 -11 9 C-12.65 9 -14.3 9 -16 9 C-16 8.34 -16 7.68 -16 7 C-15.34 6.67 -14.68 6.34 -14 6 C-15.32 5.34 -16.64 4.68 -18 4 C-16.66195313 4.03480469 -16.66195313 4.03480469 -15.296875 4.0703125 C-14.12640625 4.08835938 -12.9559375 4.10640625 -11.75 4.125 C-10.58984375 4.14820313 -9.4296875 4.17140625 -8.234375 4.1953125 C-5.15318867 4.00925052 -3.5214091 3.71695953 -1 2 C-0.67 1.34 -0.34 0.68 0 0 Z" transform="translate(287,134)"/><path fill="#543641" d="M0 0 C3.36179774 1.44077046 5.59156268 3.24750021 8 6 C8 6.66 8 7.32 8 8 C9.98 8.66 11.96 9.32 14 10 C12.8125 11.5 12.8125 11.5 11 13 C8.3125 13.1875 8.3125 13.1875 6 13 C6.33 14.65 6.66 16.3 7 18 C4.03 17.01 1.06 16.02 -2 15 C-0.68 14.67 0.64 14.34 2 14 C1.2812193 6.95792295 1.2812193 6.95792295 0 0 Z" transform="translate(261,143)"/><path fill="#292628" d="M0 0 C0.66 0 1.32 0 2 0 C2.33 1.65 2.66 3.3 3 5 C2.01 4.67 1.02 4.34 0 4 C0.33 4.99 0.66 5.98 1 7 C1.99 6.67 2.98 6.34 4 6 C4 5.34 4 4.68 4 4 C4.66 4 5.32 4 6 4 C7.625 6.5 7.625 6.5 9 9 C5.77208445 11.1519437 4.71599191 11.20086443 1 11 C-0.70084819 16.32932432 -1.52013969 21.43109483 -2 27 C-2.33 27 -2.66 27 -3 27 C-4.50466138 17.03161836 -5.36277387 8.88209422 0 0 Z" transform="translate(258,99)"/><path fill="#090A0D" d="M0 0 C0.33 0 0.66 0 1 0 C0.67 3.3 0.34 6.6 0 10 C0.66 9.01 1.32 8.02 2 7 C2.66 7.66 3.32 8.32 4 9 C5.32 7.02 6.64 5.04 8 3 C8 6.83141968 7.22616805 10.44217382 6.5 14.1875 C6.28537109 15.31188477 6.28537109 15.31188477 6.06640625 16.45898438 C5.71338561 18.30645906 5.35701581 20.15329321 5 22 C3 20.625 3 20.625 1 19 C1 18.34 1 17.68 1 17 C0.01 16.67 -0.98 16.34 -2 16 C-3.1194613 13.1085914 -3.10768197 10.32237388 -3.0625 7.25 C-3.05347656 6.45078125 -3.04445312 5.6515625 -3.03515625 4.828125 C-3.02355469 4.22484375 -3.01195312 3.6215625 -3 3 C-2.34 3 -1.68 3 -1 3 C-0.67 2.01 -0.34 1.02 0 0 Z" transform="translate(250,206)"/><path fill="#A57766" d="M0 0 C0.66 0.33 1.32 0.66 2 1 C2 4.63 2 8.26 2 12 C0.35 12 -1.3 12 -3 12 C-2.67 13.98 -2.34 15.96 -2 18 C-5 17 -5 17 -6.1875 15 C-7.28113733 10.96195446 -7.16301345 7.15684292 -7 3 C-4.69631264 1.93347808 -2.35981813 0.93578995 0 0 Z" transform="translate(268,125)"/><path fill="#2F2824" d="M0 0 C7.30170082 0.71120462 14.13382877 2.48240388 21 5 C21.33 7.97 21.66 10.94 22 14 C20.35 14.33 18.7 14.66 17 15 C18.32 14.34 19.64 13.68 21 13 C20.34 12.34 19.68 11.68 19 11 C16.99279077 11.28674418 14.99369031 11.63079809 13 12 C10.32602531 12.09137683 7.67670434 12.04615007 5 12 C5 11.67 5 11.34 5 11 C11.93 9.515 11.93 9.515 19 8 C17.89140625 7.74605469 16.7828125 7.49210937 15.640625 7.23046875 C14.1769633 6.88331822 12.71342813 6.53563385 11.25 6.1875 C10.52039063 6.02185547 9.79078125 5.85621094 9.0390625 5.68554688 C5.06281956 4.7276338 2.09199911 3.83975708 -1 1 C-0.67 0.67 -0.34 0.34 0 0 Z" transform="translate(344,473)"/><path fill="#6E6C67" d="M0 0 C0 3.3 0 6.6 0 10 C-0.66 10 -1.32 10 -2 10 C-2 7.69 -2 5.38 -2 3 C-2.66 3 -3.32 3 -4 3 C-4 3.66 -4 4.32 -4 5 C-4.639375 5.474375 -5.27875 5.94875 -5.9375 6.4375 C-8.28372963 7.9091365 -8.28372963 7.9091365 -9 11 C-7.35 10.67 -5.7 10.34 -4 10 C-4.33 10.66 -4.66 11.32 -5 12 C-7.32156597 12.40729228 -9.6568787 12.74438677 -12 13 C-12.33 9.37 -12.66 5.74 -13 2 C-4.5 0 -4.5 0 0 0 Z" transform="translate(321,269)"/><path fill="#2F302E" d="M0 0 C1.5625 1.8125 1.5625 1.8125 3 4 C2.67 4.99 2.34 5.98 2 7 C-0.0625 7.6875 -0.0625 7.6875 -2 8 C-2.33 9.65 -2.66 11.3 -3 13 C-1.68 12.67 -0.36 12.34 1 12 C0.34 13.65 -0.32 15.3 -1 17 C-1.66 17 -2.32 17 -3 17 C-3 18.65 -3 20.3 -3 22 C-3.66 21.67 -4.32 21.34 -5 21 C-4.67 19.35 -4.34 17.7 -4 16 C-4.66 15.67 -5.32 15.34 -6 15 C-5.67 14.01 -5.34 13.02 -5 12 C-6.65 12.33 -8.3 12.66 -10 13 C-8.625 10.5 -8.625 10.5 -7 8 C-6.34 8 -5.68 8 -5 8 C-5 6.35 -5 4.7 -5 3 C-3.35 2.67 -1.7 2.34 0 2 C0 1.34 0 0.68 0 0 Z" transform="translate(319,291)"/><path fill="#C48674" d="M0 0 C0.86625 0.5259375 0.86625 0.5259375 1.75 1.0625 C4.35801776 2.14917407 5.39417629 1.93065133 8 1 C8 1.66 8 2.32 8 3 C11.30753495 4.10251165 14.64566891 5.05066101 18 6 C17.01 7.98 16.02 9.96 15 12 C11.56804384 11.36532318 9.24308259 10.02411502 6.375 8.0625 C5.59898437 7.53785156 4.82296875 7.01320312 4.0234375 6.47265625 C2 5 2 5 0 3 C0 2.01 0 1.02 0 0 Z" transform="translate(311,207)"/><path fill="#6E4539" d="M0 0 C0.66 0 1.32 0 2 0 C2.02698189 1.62490954 2.04638757 3.24994633 2.0625 4.875 C2.07410156 5.77992187 2.08570313 6.68484375 2.09765625 7.6171875 C2 10 2 10 1 12 C1.99 12.33 2.98 12.66 4 13 C3.96519531 13.96099609 3.96519531 13.96099609 3.9296875 14.94140625 C3.81559137 20.40987096 4.20208096 24.83098277 6 30 C4.68 29.67 3.36 29.34 2 29 C0.77100654 22.93184478 -0.27560214 17.20104812 0 11 C-0.66 11 -1.32 11 -2 11 C-2.25 3.375 -2.25 3.375 0 0 Z" transform="translate(258,114)"/><path fill="#A16454" d="M0 0 C1.19189453 1.75463867 1.19189453 1.75463867 1.19189453 5.75463867 C0.20189453 5.75463867 -0.78810547 5.75463867 -1.80810547 5.75463867 C-1.80810547 4.43463867 -1.80810547 3.11463867 -1.80810547 1.75463867 C-8.4248015 2.16750312 -14.44629112 2.79715733 -20.80810547 4.75463867 C-23.47190597 5.18046824 -26.12368843 5.47206846 -28.80810547 5.75463867 C-28.80810547 4.76463867 -28.80810547 3.77463867 -28.80810547 2.75463867 C-23.4861011 0.42096066 -18.42076987 -0.02576923 -12.68310547 -0.55786133 C-11.68150391 -0.66936523 -10.67990234 -0.78086914 -9.64794922 -0.89575195 C-8.68759766 -0.98663086 -7.72724609 -1.07750977 -6.73779297 -1.17114258 C-5.86364746 -1.2579126 -4.98950195 -1.34468262 -4.08886719 -1.43408203 C-1.80810547 -1.24536133 -1.80810547 -1.24536133 0 0 Z" transform="translate(323.80810546875,226.245361328125)"/><path fill="#C08371" d="M0 0 C2.6875 -0.3125 2.6875 -0.3125 6 0 C8.875 2.3125 8.875 2.3125 11 5 C11 5.99 11 6.98 11 8 C10.03175293 8.08302368 10.03175293 8.08302368 9.04394531 8.16772461 C6.11233145 8.42098611 3.18117319 8.67919036 0.25 8.9375 C-1.27367187 9.06801758 -1.27367187 9.06801758 -2.828125 9.20117188 C-3.8078125 9.28818359 -4.7875 9.37519531 -5.796875 9.46484375 C-6.69760742 9.543396 -7.59833984 9.62194824 -8.52636719 9.70288086 C-10.76184712 9.97139439 -12.83403551 10.39662418 -15 11 C-15 9.68 -15 8.36 -15 7 C-12.05868109 6.01956036 -10.17498335 5.88378798 -7.11328125 5.90234375 C-6.17548828 5.90556641 -5.23769531 5.90878906 -4.27148438 5.91210938 C-2.80678711 5.92467773 -2.80678711 5.92467773 -1.3125 5.9375 C0.16959961 5.94426758 0.16959961 5.94426758 1.68164062 5.95117188 C4.12115474 5.96295697 6.56054689 5.97940989 9 6 C6.42595029 2.13892543 4.38979741 2.05680308 0 1 C0 0.67 0 0.34 0 0 Z" transform="translate(311,218)"/><path fill="#2C2F37" d="M0 0 C1.8125 0.0625 1.8125 0.0625 4 1 C5.75 4.5625 5.75 4.5625 7 8 C7.99 7.67 8.98 7.34 10 7 C10 9.64 10 12.28 10 15 C9.21625 14.79375 8.4325 14.5875 7.625 14.375 C6.75875 14.25125 5.8925 14.1275 5 14 C4.34 14.66 3.68 15.32 3 16 C2.01 16 1.02 16 0 16 C0.08378906 15.09636719 0.16757812 14.19273437 0.25390625 13.26171875 C0.35574219 12.08222656 0.45757812 10.90273437 0.5625 9.6875 C0.66691406 8.51574219 0.77132813 7.34398437 0.87890625 6.13671875 C1.18577434 2.96967425 1.18577434 2.96967425 0 0 Z" transform="translate(329,198)"/><path fill="#282927" d="M0 0 C0.66 0 1.32 0 2 0 C1.98839844 0.64066406 1.97679687 1.28132813 1.96484375 1.94140625 C1.91116881 7.08653222 2.11830422 11.93024924 3 17 C2.67 16.01 2.34 15.02 2 14 C0.35 15.32 -1.3 16.64 -3 18 C-3.99 15.03 -4.98 12.06 -6 9 C-5.01 8.67 -4.02 8.34 -3 8 C-3.66 8 -4.32 8 -5 8 C-4.75 6.125 -4.75 6.125 -4 4 C-1.9375 2.75 -1.9375 2.75 0 2 C0 1.34 0 0.68 0 0 Z" transform="translate(317,272)"/><path fill="#1C243E" d="M0 0 C0.33 0 0.66 0 1 0 C1.0270491 3.06255961 1.04686298 6.1248786 1.0625 9.1875 C1.07087891 10.05181641 1.07925781 10.91613281 1.08789062 11.80664062 C1.10413707 16.04696393 0.90503429 19.84748975 0 24 C-0.26238124 26.93350231 -0.41211634 29.87139002 -0.5625 32.8125 C-0.60568359 33.60076172 -0.64886719 34.38902344 -0.69335938 35.20117188 C-0.79878321 37.13394215 -0.89983094 39.06695026 -1 41 C-5.0647347 32.87053061 -4.13577563 25.94423309 -3 17 C-2.34 17 -1.68 17 -1 17 C-0.67 11.39 -0.34 5.78 0 0 Z" transform="translate(266,319)"/><path fill="#845347" d="M0 0 C3.96 0 7.92 0 12 0 C12 1.32 12 2.64 12 4 C12.66 4.33 13.32 4.66 14 5 C12.82421875 6.51953125 12.82421875 6.51953125 11 8 C8.51953125 8.07421875 8.51953125 8.07421875 5.8125 7.6875 C4.91144531 7.56761719 4.01039063 7.44773438 3.08203125 7.32421875 C2.39496094 7.21722656 1.70789063 7.11023438 1 7 C0 2.25 0 2.25 0 0 Z" transform="translate(310,228)"/><path fill="#18191F" d="M0 0 C0.33 2.31 0.66 4.62 1 7 C1.66 7 2.32 7 3 7 C3.33 7.66 3.66 8.32 4 9 C4.99 7.02 5.98 5.04 7 3 C7.66 3 8.32 3 9 3 C9.33 5.97 9.66 8.94 10 12 C8.63875 11.9690625 8.63875 11.9690625 7.25 11.9375 C4.14181947 11.85845564 4.14181947 11.85845564 1.8125 12.625 C1.214375 12.74875 0.61625 12.8725 0 13 C-0.99 12.34 -1.98 11.68 -3 11 C-2.34 9.68 -1.68 8.36 -1 7 C-1.99 6.67 -2.98 6.34 -4 6 C-3.625 3.5625 -3.625 3.5625 -3 1 C-1 0 -1 0 0 0 Z" transform="translate(282,223)"/><path fill="#09090B" d="M0 0 C0.33 0.66 0.66 1.32 1 2 C1.99 2.33 2.98 2.66 4 3 C0.86245523 6.13754477 -2.21254928 6.70634794 -6.47265625 7.08203125 C-10.88651531 6.93876844 -14.88615549 5.52014714 -19 4 C-18.67 3.01 -18.34 2.02 -18 1 C-12.25 0.875 -12.25 0.875 -10 2 C-8.08596924 2.19668734 -8.08596924 2.19668734 -6 2.1875 C-5.29875 2.20167969 -4.5975 2.21585938 -3.875 2.23046875 C-1.75475062 2.16512323 -1.75475062 2.16512323 0 0 Z" transform="translate(342,222)"/><path fill="#445481" d="M0 0 C3.56365746 2.82485043 4.53090548 5.08510394 5.0625 9.5859375 C5.124375 10.25882812 5.18625 10.93171875 5.25 11.625 C5.32734375 12.305625 5.4046875 12.98625 5.484375 13.6875 C5.75455286 16.12874995 6 18.54212398 6 21 C7.65 21.33 9.3 21.66 11 22 C10.01 22.33 9.02 22.66 8 23 C6.77030122 26.51190809 6.77030122 26.51190809 6 30 C5.01 29.67 4.02 29.34 3 29 C1.94777297 25.8433189 2.0878634 24.79515913 2.625 21.625 C3.29731902 15.98914057 2.13724558 11.22488359 0.69140625 5.78515625 C0 3 0 3 0 0 Z" transform="translate(260,251)"/><path fill="#5162A2" d="M0 0 C0.33 0 0.66 0 1 0 C3.48063781 16.70842825 3.48063781 16.70842825 2 25 C1.01 25.33 0.02 25.66 -1 26 C-2.57990392 17.11837794 -1.32346258 8.81579205 0 0 Z" transform="translate(253,110)"/><path fill="#45484B" d="M0 0 C0.495 0.268125 0.99 0.53625 1.5 0.8125 C4.9236946 2.43875493 8.44132285 3.69515171 12 5 C11.01 6.32 10.02 7.64 9 9 C7.68 8.67 6.36 8.34 5 8 C4.34 10.31 3.68 12.62 3 15 C1 11.25 1 11.25 1 9 C0.34 8.67 -0.32 8.34 -1 8 C-2.34275169 7.01268258 -3.67732273 6.01405257 -5 5 C-1.535 4.505 -1.535 4.505 2 4 C1.34 2.68 0.68 1.36 0 0 Z" transform="translate(333,192)"/><path fill="#F0D0B0" d="M0 0 C1.41377341 2.63904371 2.37240135 5.07120629 3 8 C2.01 8.33 1.02 8.66 0 9 C-0.1546875 10.3303125 -0.1546875 10.3303125 -0.3125 11.6875 C-1 15 -1 15 -2.5625 17.375 C-4.59090324 21.07904069 -4.2128727 23.81350359 -4 28 C-5.32 28 -6.64 28 -8 28 C-8.8125 24.875 -8.8125 24.875 -9 21 C-6.75 18.125 -6.75 18.125 -5.34375 16.6640625 C-1.71700477 12.17280242 -0.71558086 5.58153067 0 0 Z" transform="translate(288,131)"/><path fill="#2E2823" d="M0 0 C2.35043586 1.98070437 4.67822804 3.98581322 7 6 C7.825 6.70125 8.65 7.4025 9.5 8.125 C9.995 8.74375 10.49 9.3625 11 10 C10.75 12.25 10.75 12.25 10 14 C7 13 7 13 5 10 C2.94996045 8.80767387 2.94996045 8.80767387 1 8 C1 7.34 1 6.68 1 6 C0.01 5.67 -0.98 5.34 -2 5 C-2 3.68 -2 2.36 -2 1 C-1.34 0.67 -0.68 0.34 0 0 Z" transform="translate(329,461)"/><path fill="#31302D" d="M0 0 C0.99 0 1.98 0 3 0 C3.66 3.3 4.32 6.6 5 10 C1.92382812 10.29296875 1.92382812 10.29296875 -1.15234375 10.5859375 C-2.06693359 10.79089844 -2.06693359 10.79089844 -3 11 C-3.33 11.66 -3.66 12.32 -4 13 C-4 10.03 -4 7.06 -4 4 C-3.01 4 -2.02 4 -1 4 C-0.67 2.68 -0.34 1.36 0 0 Z" transform="translate(325,266)"/><path fill="#2F2F2D" d="M0 0 C2 3 2 3 2 7 C0.68 7 -0.64 7 -2 7 C-2.33 7.66 -2.66 8.32 -3 9 C-5.42897896 9.34442981 -7.745635 9.56019898 -10.1875 9.6875 C-11.50105469 9.77386719 -12.81460937 9.86023438 -14.16796875 9.94921875 C-17.61753948 9.99493172 -20.63217044 9.69661171 -24 9 C-24 8.67 -24 8.34 -24 8 C-18.375 6 -18.375 6 -15 6 C-15 6.66 -15 7.32 -15 8 C-13.58318366 7.68817931 -12.16655349 7.37551263 -10.75 7.0625 C-9.96109375 6.88847656 -9.1721875 6.71445312 -8.359375 6.53515625 C-6.23121297 6.052444 -4.11467158 5.53836822 -2 5 C-2 4.34 -2 3.68 -2 3 C-2.66 2.34 -3.32 1.68 -4 1 C-2.68 0.67 -1.36 0.34 0 0 Z" transform="translate(307,273)"/><path fill="#7A6959" d="M0 0 C0.33 0 0.66 0 1 0 C2.66663557 7.91651895 2.65825224 15.35752481 0 23 C-2.56628339 19.15057491 -2.29464462 15.95702113 -2.25 11.5 C-2.25773437 10.72785156 -2.26546875 9.95570312 -2.2734375 9.16015625 C-2.25993153 5.26368532 -2.20675169 3.31012753 0 0 Z" transform="translate(291,109)"/><path fill="#7B5243" d="M0 0 C-0.99 0.33 -1.98 0.66 -3 1 C-3.06058594 1.62648438 -3.12117188 2.25296875 -3.18359375 2.8984375 C-3.30927734 4.12433594 -3.30927734 4.12433594 -3.4375 5.375 C-3.51871094 6.18710938 -3.59992188 6.99921875 -3.68359375 7.8359375 C-4 10 -4 10 -5 12 C-6.32 11.67 -7.64 11.34 -9 11 C-9.66 8.69 -10.32 6.38 -11 4 C-7.26280719 0.48264206 -5.13496308 -0.47767098 0 0 Z" transform="translate(271,108)"/><path fill="#1C284D" d="M0 0 C5.5866024 6.11865977 6.56697234 15.16982154 7.6875 23.0625 C7.88182617 24.3609082 7.88182617 24.3609082 8.08007812 25.68554688 C8.39389856 27.78930608 8.69799214 29.89451257 9 32 C8.34 32 7.68 32 7 32 C5.99870158 27.92594804 5.0019121 23.85082744 4.00927734 19.7746582 C3.67099591 18.38828813 3.33148648 17.00221708 2.99072266 15.61645508 C2.5009933 13.62398475 2.01569722 11.63047905 1.53125 9.63671875 C1.09135742 7.83787231 1.09135742 7.83787231 0.64257812 6.00268555 C0 3 0 3 0 0 Z" transform="translate(302,335)"/><path fill="#131B2E" d="M0 0 C0.6875 2.25 0.6875 2.25 1 5 C-0.3125 7.0625 -0.3125 7.0625 -2 9 C-2.69580267 10.31836295 -3.37224433 11.64791086 -4 13 C-4.66 13 -5.32 13 -6 13 C-6.33 14.32 -6.66 15.64 -7 17 C-8.39422419 14.21155162 -7.69586669 11.96567945 -7.25390625 8.97265625 C-6.93617013 6.83557926 -6.93617013 6.83557926 -7 4 C-2.65714286 0 -2.65714286 0 0 0 Z" transform="translate(257,200)"/><path fill="#C28876" d="M0 0 C20.29650092 -0.19705341 20.29650092 -0.19705341 27 1 C29 3 29 3 29.125 5.625 C29.08375 6.40875 29.0425 7.1925 29 8 C26.5 6.625 26.5 6.625 24 5 C24 4.34 24 3.68 24 3 C15.75 2.67 7.5 2.34 -1 2 C-0.67 1.34 -0.34 0.68 0 0 Z" transform="translate(302,200)"/><path fill="#8D8A88" d="M0 0 C2.65688135 0.28406908 3.78465854 0.77961541 5.66796875 2.70703125 C6.16941406 3.40183594 6.67085938 4.09664063 7.1875 4.8125 C7.69667969 5.49957031 8.20585937 6.18664062 8.73046875 6.89453125 C9.97732208 8.96238954 10.55995157 10.64070422 11 13 C7.52736857 12.43626113 6.08682935 11.39149033 3.875 8.6875 C3.37742187 8.09324219 2.87984375 7.49898438 2.3671875 6.88671875 C0.99816916 4.99747344 -0.02026781 3.1134223 -1 1 C-0.67 0.67 -0.34 0.34 0 0 Z" transform="translate(284,474)"/><path fill="#1A1C22" d="M0 0 C0 0.66 0 1.32 0 2 C0.99 1.67 1.98 1.34 3 1 C3 1.66 3 2.32 3 3 C3.99 3 4.98 3 6 3 C5.34 4.32 4.68 5.64 4 7 C-3.50769231 7.36923077 -3.50769231 7.36923077 -6 5.5 C-6.33 5.005 -6.66 4.51 -7 4 C-2.25 0 -2.25 0 0 0 Z" transform="translate(336,218)"/><path fill="#1F1F1F" d="M0 0 C0.99 0.99 1.98 1.98 3 3 C2 6 2 6 -1.375 7.6875 C-5 9 -5 9 -8 9 C-8 7.02 -8 5.04 -8 3 C-6.865625 2.690625 -5.73125 2.38125 -4.5625 2.0625 C-1.21224901 1.37075469 -1.21224901 1.37075469 0 0 Z" transform="translate(289,466)"/><path fill="#95584A" d="M0 0 C5.62120806 0.1405302 8.01301675 2.56554274 11.8984375 6.2109375 C15.00429131 8.85495431 18.28757238 10.34266624 22 12 C21.67 12.66 21.34 13.32 21 14 C16.45671787 12.70000482 13.15545661 10.94703099 9.375 8.125 C8.45460938 7.44695312 7.53421875 6.76890625 6.5859375 6.0703125 C4.21473429 4.17191718 2.09597325 2.19437575 0 0 Z" transform="translate(304,207)"/><path fill="#D8B68F" d="M0 0 C0.886875 0.86625 1.77375 1.7325 2.6875 2.625 C7.76182636 7.02834106 13.86989157 9.4004653 20 12 C20 12.33 20 12.66 20 13 C14.22621075 12.5188509 10.04140164 10.81532819 5 8 C4.67 8.66 4.34 9.32 4 10 C0 4.5 0 4.5 0 0 Z" transform="translate(284,159)"/><path fill="#2E2A27" d="M0 0 C-0.8125 1.9375 -0.8125 1.9375 -2 4 C-2.99 4.33 -3.98 4.66 -5 5 C-5 7.97 -5 10.94 -5 14 C-7.375 14.1875 -7.375 14.1875 -10 14 C-12.4294516 10.3558226 -12.16179575 8.28758728 -12 4 C-11.34 3.67 -10.68 3.34 -10 3 C-9.34 5.64 -8.68 8.28 -8 11 C-7.9175 9.9275 -7.835 8.855 -7.75 7.75 C-6.76818438 2.84092189 -5.27827079 0 0 0 Z" transform="translate(278,94)"/><path fill="#1A1A19" d="M0 0 C4.16138263 -0.08159574 7.9472484 0.01751476 12 1 C12 1.99 12 2.98 12 4 C9.56612247 5.21693876 7.58161154 5.31959896 4.875 5.5625 C3.96492188 5.64628906 3.05484375 5.73007812 2.1171875 5.81640625 C1.06917969 5.90728516 1.06917969 5.90728516 0 6 C0 4.02 0 2.04 0 0 Z" transform="translate(266,459)"/><path fill="#292929" d="M0 0 C1.98 0.66 3.96 1.32 6 2 C6 3.65 6 5.3 6 7 C2.17010894 8.80230168 -0.78121808 9.19622241 -5 9 C-5 8.34 -5 7.68 -5 7 C-4.175 6.360625 -3.35 5.72125 -2.5 5.0625 C-1.675 4.381875 -0.85 3.70125 0 3 C0 2.01 0 1.02 0 0 Z" transform="translate(323,451)"/><path fill="#A36552" d="M0 0 C-0.99 0 -1.98 0 -3 0 C-2.67 0.556875 -2.34 1.11375 -2 1.6875 C-0.8690399 4.30284522 -0.84337026 6.1806646 -1 9 C-1.33 8.34 -1.66 7.68 -2 7 C-4.32156597 6.59270772 -6.6568787 6.25561323 -9 6 C-9.33 4.35 -9.66 2.7 -10 1 C-3.71428571 -1.42857143 -3.71428571 -1.42857143 0 0 Z" transform="translate(277,155)"/><path fill="#504E49" d="M0 0 C2.74443937 2.66602682 5.29999628 5.32101468 7.6875 8.3125 C8.450625 9.199375 9.21375 10.08625 10 11 C10.66 11 11.32 11 12 11 C12.33 10.34 12.66 9.68 13 9 C15 11 15 11 15 15 C12.3046875 15.36328125 12.3046875 15.36328125 9 15 C7.02265988 13.04987099 5.65287496 11.44033603 4.125 9.1875 C3.7228125 8.64029297 3.320625 8.09308594 2.90625 7.52929688 C0.9674484 4.80903953 0 3.4084342 0 0 Z" transform="translate(282,475)"/><path fill="#D8A891" d="M0 0 C0.66 0 1.32 0 2 0 C2.33 2.64 2.66 5.28 3 8 C3.66 7.01 4.32 6.02 5 5 C6.26264601 9.29299643 5.62950412 11.87831311 4 16 C3 15 2 14 1 13 C0.01 13.99 -0.98 14.98 -2 16 C-1.42978066 10.6496441 -0.79265639 5.32212148 0 0 Z" transform="translate(287,121)"/><path fill="#272D35" d="M0 0 C2.31 0.33 4.62 0.66 7 1 C7.33 1.99 7.66 2.98 8 4 C7.67 4.66 7.34 5.32 7 6 C7.3191623 8.22624593 7.3191623 8.22624593 7.9375 10.625 C8.13214844 11.44226563 8.32679688 12.25953125 8.52734375 13.1015625 C8.68332031 13.72804687 8.83929688 14.35453125 9 15 C8.34 14.34 7.68 13.68 7 13 C7 12.01 7 11.02 7 10 C6.34 10 5.68 10 5 10 C3.90396677 7.9540713 3.03339847 6.14194351 2.5 3.875 C2.10722935 1.77320517 2.10722935 1.77320517 0 0 Z M4 10 C4.33 10 4.66 10 5 10 C5 11.65 5 13.3 5 15 C4.34 14.67 3.68 14.34 3 14 C3.33 12.68 3.66 11.36 4 10 Z" transform="translate(341,198)"/><path fill="#583931" d="M0 0 C0.99 0.33 1.98 0.66 3 1 C2.67 1.66 2.34 2.32 2 3 C2.28112064 5.00800456 2.61067967 7.01014051 3 9 C5.64 9 8.28 9 11 9 C11.33 9.66 11.66 10.32 12 11 C8.7 11 5.4 11 2 11 C2 11.99 2 12.98 2 14 C2.66 14 3.32 14 4 14 C4.33 14.99 4.66 15.98 5 17 C3.35 16.67 1.7 16.34 0 16 C0.33 12.04 0.66 8.08 1 4 C0.01 4.33 -0.98 4.66 -2 5 C-1.34 3.35 -0.68 1.7 0 0 Z" transform="translate(259,110)"/><path fill="#1A2033" d="M0 0 C0.99 0.33 1.98 0.66 3 1 C4.20117332 5.20410662 3.62144357 7.03647127 2 11 C1.5361992 13.98949866 1.24955019 16.98569641 1 20 C0.67 20 0.34 20 0 20 C-0.95477011 13.67464804 -1.38235426 7.39881105 -1 1 C-0.67 0.67 -0.34 0.34 0 0 Z" transform="translate(255,106)"/><path fill="#908CC0" d="M0 0 C0.66 0 1.32 0 2 0 C2.33 6.27 2.66 12.54 3 19 C2.34 19.33 1.68 19.66 1 20 C0.67 17.69 0.34 15.38 0 13 C-0.99 12.67 -1.98 12.34 -3 12 C-2.690625 11.319375 -2.38125 10.63875 -2.0625 9.9375 C-0.86629351 6.63034088 -0.40994603 3.48454122 0 0 Z" transform="translate(256,125)"/><path fill="#18203B" d="M0 0 C2.56529454 1.28264727 2.66499863 2.22772349 3.625 4.875 C3.88539063 5.57367188 4.14578125 6.27234375 4.4140625 6.9921875 C5 9 5 9 5 12 C4.34 12 3.68 12 3 12 C3.33 13.65 3.66 15.3 4 17 C3.34 17 2.68 17 2 17 C-0.1663492 10.91708727 -1.5197276 6.3552245 0 0 Z" transform="translate(310,368)"/><path fill="#101424" d="M0 0 C4.92145768 4.23568079 4.78395107 10.63082711 5.34375 16.76953125 C5.59244438 20.17871676 5.81311654 23.58691795 6 27 C5.71125 26.38125 5.4225 25.7625 5.125 25.125 C4.06279958 22.86674235 4.06279958 22.86674235 2 21 C2.66 21 3.32 21 4 21 C3.71125 19.7625 3.4225 18.525 3.125 17.25 C1.84975069 11.53870489 0.91894311 5.77761039 0 0 Z" transform="translate(307,346)"/><path fill="#2F1E1B" d="M0 0 C3.36179774 1.44077046 5.59156268 3.24750021 8 6 C8 6.66 8 7.32 8 8 C9.98 8.66 11.96 9.32 14 10 C14 10.33 14 10.66 14 11 C9.26513401 10.53579745 5.80982842 9.9390105 2 7 C0.26476072 4.35582586 0 3.21534057 0 0 Z" transform="translate(261,143)"/><path fill="#0E1014" d="M0 0 C6.37781629 3.88214905 6.37781629 3.88214905 8 8 C8.98879205 9.67334039 9.98648336 11.34151823 11 13 C8.53199953 11.84826645 6.95216435 10.95216435 5 9 C4.01 9.495 4.01 9.495 3 10 C0.96564469 6.27034861 0 4.33094958 0 0 Z" transform="translate(234,204)"/><path fill="#464547" d="M0 0 C8.25 0 16.5 0 25 0 C23.02 0.99 23.02 0.99 21 2 C20.67 2.99 20.34 3.98 20 5 C18.02 4.34 16.04 3.68 14 3 C14 2.34 14 1.68 14 1 C9.38 1 4.76 1 0 1 C0 0.67 0 0.34 0 0 Z" transform="translate(273,274)"/><path fill="#B48772" d="M0 0 C0.8971875 0.5259375 0.8971875 0.5259375 1.8125 1.0625 C1.173125 1.805 0.53375 2.5475 -0.125 3.3125 C-1.97083407 5.7736121 -2.74819174 7.09716926 -3.1875 10.0625 C-4.8375 10.0625 -6.4875 10.0625 -8.1875 10.0625 C-7.5275 9.7325 -6.8675 9.4025 -6.1875 9.0625 C-5.72098793 6.93673218 -5.72098793 6.93673218 -5.5625 4.5 C-5.48773438 3.67371094 -5.41296875 2.84742187 -5.3359375 1.99609375 C-5.28695313 1.35800781 -5.23796875 0.71992187 -5.1875 0.0625 C-2.1875 -0.9375 -2.1875 -0.9375 0 0 Z" transform="translate(273.1875,108.9375)"/><path fill="#1B1A1C" d="M0 0 C0.33 0.99 0.66 1.98 1 3 C0.67 3.33 0.34 3.66 0 4 C-0.04320247 6.33293334 -0.04022391 8.6670134 0 11 C0 11.99 0 12.98 0 14 C-1.5 12.625 -1.5 12.625 -3 11 C-3 10.34 -3 9.68 -3 9 C-3.66 9 -4.32 9 -5 9 C-5 9.66 -5 10.32 -5 11 C-5.66 11 -6.32 11 -7 11 C-7.33 11.66 -7.66 12.32 -8 13 C-8.33 11.68 -8.66 10.36 -9 9 C-8.34 9 -7.68 9 -7 9 C-6.01 6.69 -5.02 4.38 -4 2 C-3.67 2 -3.34 2 -3 2 C-3.020625 2.804375 -3.04125 3.60875 -3.0625 4.4375 C-3.29633621 6.93354885 -3.29633621 6.93354885 -2 8 C-1.855625 6.865625 -1.71125 5.73125 -1.5625 4.5625 C-1 1 -1 1 0 0 Z" transform="translate(267,94)"/><path fill="#1A1A19" d="M0 0 C-0.33 0.99 -0.66 1.98 -1 3 C0.32 2.67 1.64 2.34 3 2 C2.34 3.65 1.68 5.3 1 7 C0.34 7 -0.32 7 -1 7 C-1 8.65 -1 10.3 -1 12 C-1.66 11.67 -2.32 11.34 -3 11 C-2.67 9.35 -2.34 7.7 -2 6 C-2.66 5.67 -3.32 5.34 -4 5 C-3.67 4.01 -3.34 3.02 -3 2 C-4.65 2.33 -6.3 2.66 -8 3 C-5.45189726 -0.82215411 -4.39145359 -1.46381786 0 0 Z" transform="translate(317,301)"/><path fill="#283866" d="M0 0 C0.12375 0.639375 0.2475 1.27875 0.375 1.9375 C0.684375 2.9584375 0.684375 2.9584375 1 4 C1.66 4.33 2.32 4.66 3 5 C2.01 5 1.02 5 0 5 C0 7.31 0 9.62 0 12 C-0.99 12.33 -1.98 12.66 -3 13 C-3.73323796 15.01508358 -3.73323796 15.01508358 -4 17 C-4.08333357 12.1666528 -3.95261487 7.76307437 -3 3 C-2.34 3 -1.68 3 -1 3 C-0.67 2.01 -0.34 1.02 0 0 Z" transform="translate(266,277)"/><path fill="#562F27" d="M0 0 C4.1187423 0.53849281 6.41952244 1.76435333 9.625 4.375 C10.38039063 4.98085937 11.13578125 5.58671875 11.9140625 6.2109375 C13.69865235 7.74154078 15.37007789 9.30778787 17 11 C14.36 10.67 11.72 10.34 9 10 C8.67 9.01 8.34 8.02 8 7 C6.01310269 5.64721885 4.01254782 4.31431695 2 3 C1.34 2.01 0.68 1.02 0 0 Z" transform="translate(302,208)"/><path fill="#C89D8B" d="M0 0 C-0.33 2.97 -0.66 5.94 -1 9 C-2.65 9 -4.3 9 -6 9 C-6.1875 5.625 -6.1875 5.625 -6 2 C-3 0 -3 0 0 0 Z" transform="translate(269,127)"/><path fill="#BFBCB4" d="M0 0 C-0.639375 0.165 -1.27875 0.33 -1.9375 0.5 C-4.16119241 1.781786 -4.16119241 1.781786 -4.48828125 3.9140625 C-4.7275978 5.93575155 -4.86893028 7.96841939 -5 10 C-3.02 9.67 -1.04 9.34 1 9 C0.67 9.66 0.34 10.32 0 11 C-2.32156597 11.40729228 -4.6568787 11.74438677 -7 12 C-7.33 8.37 -7.66 4.74 -8 1 C-5.07175348 0.02391783 -3.04386724 -0.08226668 0 0 Z" transform="translate(316,270)"/><path fill="#060708" d="M0 0 C3.5742977 0.32493615 5.55712453 0.63870686 8.375 2.9375 C10 5 10 5 10 7 C7.25 7.3125 7.25 7.3125 4 7 C1.625 4.625 1.625 4.625 0 2 C0 1.34 0 0.68 0 0 Z" transform="translate(275,267)"/><path fill="#686460" d="M0 0 C1.0725 0.598125 2.145 1.19625 3.25 1.8125 C8.57348086 4.50296425 14.20395401 5.72486988 20 7 C20 7.33 20 7.66 20 8 C13.08165599 8.57228949 8.28342442 8.34363333 2.4609375 4.38671875 C1 3 1 3 0 0 Z" transform="translate(337,475)"/><path fill="#776384" d="M0 0 C0.66 0 1.32 0 2 0 C2 3.3 2 6.6 2 10 C0.68 10.33 -0.64 10.66 -2 11 C-2.25 3.375 -2.25 3.375 0 0 Z" transform="translate(258,114)"/><path fill="#32302E" d="M0 0 C0.66 0 1.32 0 2 0 C2.125 6.75 2.125 6.75 1 9 C-1.97 8.505 -1.97 8.505 -5 8 C-4.75 6.125 -4.75 6.125 -4 4 C-1.9375 2.75 -1.9375 2.75 0 2 C0 1.34 0 0.68 0 0 Z" transform="translate(317,272)"/><path fill="#1D1915" d="M0 0 C2 2 2 2 2.125 4.625 C2.08375 5.40875 2.0425 6.1925 2 7 C0.35 7.33 -1.3 7.66 -3 8 C-1.68 7.34 -0.36 6.68 1 6 C0.34 5.34 -0.32 4.68 -1 4 C-3.00720923 4.28674418 -5.00630969 4.63079809 -7 5 C-9.67397469 5.09137683 -12.32329566 5.04615007 -15 5 C-15 4.67 -15 4.34 -15 4 C-14.00097656 3.79503906 -13.00195312 3.59007812 -11.97265625 3.37890625 C-10.68230469 3.10949219 -9.39195312 2.84007812 -8.0625 2.5625 C-6.77472656 2.29566406 -5.48695313 2.02882813 -4.16015625 1.75390625 C-1.15361121 1.32818384 -1.15361121 1.32818384 0 0 Z" transform="translate(364,480)"/><path fill="#35373E" d="M0 0 C3.25543229 0.34879632 4.01873107 1.02133261 6.25 3.5625 C6.8275 4.366875 7.405 5.17125 8 6 C7.67 6.66 7.34 7.32 7 8 C5.02 7.34 3.04 6.68 1 6 C0.34 6.66 -0.32 7.32 -1 8 C-1 6.68 -1 5.36 -1 4 C-0.34 4 0.32 4 1 4 C0.67 2.68 0.34 1.36 0 0 Z" transform="translate(280,161)"/><path fill="#D6AA97" d="M0 0 C0.66 0 1.32 0 2 0 C2 1.98 2 3.96 2 6 C3.98 6 5.96 6 8 6 C7.34 6.66 6.68 7.32 6 8 C5.34 7.67 4.68 7.34 4 7 C4 8.65 4 10.3 4 12 C2.35 11.67 0.7 11.34 -1 11 C-0.67 7.37 -0.34 3.74 0 0 Z" transform="translate(274,123)"/><path fill="#684A40" d="M0 0 C2.97 0.495 2.97 0.495 6 1 C5.01 1.495 5.01 1.495 4 2 C4.33 3.65 4.66 5.3 5 7 C3.35 7 1.7 7 0 7 C-1.125 2.25 -1.125 2.25 0 0 Z" transform="translate(278,120)"/><path fill="#293F78" d="M0 0 C2.87836789 2.59981615 4.35389303 4.17720045 5 8 C5.06688591 9.91561254 5.08531719 11.83335592 5.0625 13.75 C5.05347656 14.73484375 5.04445313 15.7196875 5.03515625 16.734375 C5.02355469 17.48203125 5.01195312 18.2296875 5 19 C2.82539828 15.73809743 2.22352091 13.30548772 1.375 9.5 C0.98441406 7.78296875 0.98441406 7.78296875 0.5859375 6.03125 C0 3 0 3 0 0 Z" transform="translate(260,251)"/><path fill="#7C5A4E" d="M0 0 C1 3 1 3 0.0625 5.125 C-3.05918061 7.96289147 -5.84181206 7.72733194 -10 8 C-10.66 7.01 -11.32 6.02 -12 5 C-11.319375 5.28875 -10.63875 5.5775 -9.9375 5.875 C-6.36991658 6.02681206 -5.8092257 5.3378595 -3.1875 3.0625 C-2.11178881 2.05559763 -1.04488181 1.03885944 0 0 Z" transform="translate(284,143)"/><path fill="#493F42" d="M0 0 C-0.99 0.495 -0.99 0.495 -2 1 C-2.65555119 3.52733235 -2.65555119 3.52733235 -3 6 C-3.99 6.33 -4.98 6.66 -6 7 C-6.33 5.35 -6.66 3.7 -7 2 C-8.65 2 -10.3 2 -12 2 C-11.67 1.34 -11.34 0.68 -11 0 C-3.82105263 -1.27368421 -3.82105263 -1.27368421 0 0 Z" transform="translate(306,231)"/><path fill="#8C6154" d="M0 0 C0 1.32 0 2.64 0 4 C-0.928125 3.95875 -1.85625 3.9175 -2.8125 3.875 C-6.15809719 3.72863661 -6.15809719 3.72863661 -9 6 C-9 5.34 -9 4.68 -9 4 C-9.66 4 -10.32 4 -11 4 C-11 3.01 -11 2.02 -11 1 C-7.26513121 0.4254048 -3.78706732 0 0 0 Z" transform="translate(272,120)"/><path fill="#2C2724" d="M0 0 C3.73487777 0.4979837 5.81237635 0.87491756 9 3 C11.27912938 3.45394552 11.27912938 3.45394552 13.6875 3.625 C14.49574219 3.69976562 15.30398438 3.77453125 16.13671875 3.8515625 C16.75160156 3.90054687 17.36648438 3.94953125 18 4 C18 4.33 18 4.66 18 5 C11.40237126 6.26759997 7.06250744 6.03125372 1 3 C0.67 2.01 0.34 1.02 0 0 Z" transform="translate(337,479)"/><path fill="#AD8171" d="M0 0 C-0.33 1.98 -0.66 3.96 -1 6 C-2.32 6 -3.64 6 -5 6 C-5.33 4.02 -5.66 2.04 -6 0 C-3.50907189 -1.24546405 -2.58919267 -0.7767578 0 0 Z" transform="translate(288,122)"/><path fill="#35343B" d="M0 0 C2.4375 2.4375 2.4375 2.4375 4 5 C1.36749612 6.31625194 0.19820944 5.74813658 -2.625 5.0625 C-3.44226563 4.86785156 -4.25953125 4.67320312 -5.1015625 4.47265625 C-6.04128906 4.23869141 -6.04128906 4.23869141 -7 4 C-7 3.01 -7 2.02 -7 1 C-3.75 0.1875 -3.75 0.1875 0 0 Z" transform="translate(307,194)"/><path fill="#030303" d="M0 0 C-2.57146057 2.57146057 -4.6050417 2.80117997 -8.125 3.625 C-9.22070312 3.88539063 -10.31640625 4.14578125 -11.4453125 4.4140625 C-12.28835938 4.60742188 -13.13140625 4.80078125 -14 5 C-14 4.01 -14 3.02 -14 2 C-12.23225581 1.46877637 -10.46065917 0.95035927 -8.6875 0.4375 C-7.70136719 0.14746094 -6.71523438 -0.14257812 -5.69921875 -0.44140625 C-3 -1 -3 -1 0 0 Z" transform="translate(286,462)"/><path fill="#CE9482" d="M0 0 C11.70615034 1.55808656 11.70615034 1.55808656 16 6 C15.67 6.66 15.34 7.32 15 8 C14.38125 7.566875 13.7625 7.13375 13.125 6.6875 C8.93427674 4.42450944 4.5777753 3.25333265 0 2 C0 1.34 0 0.68 0 0 Z" transform="translate(300,202)"/><path fill="#B0705E" d="M0 0 C1.32 0.33 2.64 0.66 4 1 C1.69 3.64 -0.62 6.28 -3 9 C-3.66 8.67 -4.32 8.34 -5 8 C-3.62845496 5.04590299 -2.01136276 2.55991624 0 0 Z" transform="translate(288,199)"/><path fill="#4F2D2A" d="M0 0 C0.33 0.99 0.66 1.98 1 3 C2.32 3.66 3.64 4.32 5 5 C1.7 5 -1.6 5 -5 5 C-5.66 3.68 -6.32 2.36 -7 1 C-2.25 0 -2.25 0 0 0 Z" transform="translate(272,136)"/><path fill="#65424F" d="M0 0 C0.66 0 1.32 0 2 0 C1.67 2.97 1.34 5.94 1 9 C0.01 9.33 -0.98 9.66 -2 10 C-2.1953125 3.9453125 -2.1953125 3.9453125 -2 2 C-1.34 1.34 -0.68 0.68 0 0 Z" transform="translate(254,126)"/><path fill="#48423D" d="M0 0 C0.66 0 1.32 0 2 0 C7 5.47619048 7 5.47619048 7 8 C7.66 8 8.32 8 9 8 C9 8.99 9 9.98 9 11 C6.29120665 12.35439668 3.99066732 12.06501451 1 12 C1 11.67 1 11.34 1 11 C2.65 11 4.3 11 6 11 C4.62696409 6.99531193 2.69944127 4.23932953 0 1 C0 0.67 0 0.34 0 0 Z" transform="translate(291,479)"/><path fill="#47423D" d="M0 0 C5.75 2.625 5.75 2.625 8 6 C7.67 6.99 7.34 7.98 7 9 C1.21538462 4.56923077 1.21538462 4.56923077 0.125 1.6875 C0.08375 1.130625 0.0425 0.57375 0 0 Z" transform="translate(329,468)"/><path fill="#B57765" d="M0 0 C4.44870215 -0.39253254 7.14243493 0.84694043 11 3 C10.67 3.66 10.34 4.32 10 5 C9.34 4.67 8.68 4.34 8 4 C4.5 3.75 4.5 3.75 1 4 C0.34 4.66 -0.32 5.32 -1 6 C-0.67 4.02 -0.34 2.04 0 0 Z" transform="translate(300,204)"/><path fill="#7A6F63" d="M0 0 C2.46800047 1.15173355 4.04783565 2.04783565 6 4 C4.35 5.65 2.7 7.3 1 9 C-1.21736634 7.89131683 -3.03617993 6.50559539 -5 5 C-1.535 4.505 -1.535 4.505 2 4 C1.34 2.68 0.68 1.36 0 0 Z" transform="translate(333,192)"/><path fill="#18203B" d="M0 0 C0.99 0 1.98 0 3 0 C3.09688221 5.44693314 3.12862175 10.63904667 2 16 C1.67 16 1.34 16 1 16 C0.67 10.72 0.34 5.44 0 0 Z" transform="translate(266,282)"/><path fill="#A5A2A1" d="M0 0 C1.8125 0.0625 1.8125 0.0625 4 1 C5.75 4.5625 5.75 4.5625 7 8 C5.1875 7.8125 5.1875 7.8125 3 7 C0 2.82142857 0 2.82142857 0 0 Z" transform="translate(288,479)"/><path fill="#391D17" d="M0 0 C2.31 0 4.62 0 7 0 C7 1.32 7 2.64 7 4 C7.66 4.33 8.32 4.66 9 5 C7.02 5 5.04 5 3 5 C3 4.01 3 3.02 3 2 C2.01 1.67 1.02 1.34 0 1 C0 0.67 0 0.34 0 0 Z" transform="translate(315,228)"/><path fill="#CCAB87" d="M0 0 C5.54050113 0.56825653 10.03715966 2.62886517 15 5 C15 5.33 15 5.66 15 6 C9.22621075 5.5188509 5.04140164 3.81532819 0 1 C0 0.67 0 0.34 0 0 Z" transform="translate(289,166)"/><path fill="#603831" d="M0 0 C1.65 0 3.3 0 5 0 C5.33 0.66 5.66 1.32 6 2 C5.34 2 4.68 2 4 2 C4.33 2.99 4.66 3.98 5 5 C3.02 5.99 3.02 5.99 1 7 C0 2.25 0 2.25 0 0 Z" transform="translate(310,228)"/><path fill="#5B3D35" d="M0 0 C1.6254308 0.14095064 3.25034051 0.28792087 4.875 0.4375 C5.77992188 0.51871094 6.68484375 0.59992188 7.6171875 0.68359375 C10 1 10 1 12 2 C9.375 3.6875 9.375 3.6875 6 5 C2.625 3.6875 2.625 3.6875 0 2 C0 1.34 0 0.68 0 0 Z" transform="translate(269,149)"/><path fill="#996C5A" d="M0 0 C1.60080151 4.00200378 0.29279692 7.04556236 -1 11 C-1.99 10.67 -2.98 10.34 -4 10 C-3.52449439 8.51965236 -3.04448784 7.04074979 -2.5625 5.5625 C-2.29566406 4.73878906 -2.02882813 3.91507812 -1.75390625 3.06640625 C-1 1 -1 1 0 0 Z" transform="translate(267,109)"/><path fill="#BE7E6C" d="M0 0 C3.93281241 1.57312496 5.69057041 2.4739697 7.875 6.1875 C8.24625 7.115625 8.6175 8.04375 9 9 C5.55862568 7.4705003 2.7777867 5.54630448 0 3 C0 2.01 0 1.02 0 0 Z" transform="translate(311,207)"/><path fill="#80473B" d="M0 0 C2.64 0 5.28 0 8 0 C7.67 0.66 7.34 1.32 7 2 C5.35 2 3.7 2 2 2 C2.33 3.65 2.66 5.3 3 7 C2.01 6.67 1.02 6.34 0 6 C0 4.02 0 2.04 0 0 Z" transform="translate(265,154)"/><path fill="#CB957F" d="M0 0 C0.66 0.66 1.32 1.32 2 2 C3.96690374 2.67292501 3.96690374 2.67292501 6.125 3.125 C7.40375 3.41375 8.6825 3.7025 10 4 C10 4.33 10 4.66 10 5 C6.7 5.33 3.4 5.66 0 6 C-1 2 -1 2 0 0 Z" transform="translate(276,124)"/><path fill="#1C1918" d="M0 0 C0.99 0.33 1.98 0.66 3 1 C2.67 4.3 2.34 7.6 2 11 C1.34 10.67 0.68 10.34 0 10 C-0.77811718 6.18015204 -1.24386556 3.73159669 0 0 Z" transform="translate(269,95)"/><path fill="#272421" d="M0 0 C-0.8125 1.9375 -0.8125 1.9375 -2 4 C-2.99 4.33 -3.98 4.66 -5 5 C-5.33 7.64 -5.66 10.28 -6 13 C-6.66 12.67 -7.32 12.34 -8 12 C-7.51219512 4.68292683 -7.51219512 4.68292683 -5.125 1.5 C-3 0 -3 0 0 0 Z" transform="translate(278,94)"/><path fill="#302222" d="M0 0 C2.97 0.33 5.94 0.66 9 1 C8.67 2.32 8.34 3.64 8 5 C6.35 5.33 4.7 5.66 3 6 C2.01 4.02 1.02 2.04 0 0 Z" transform="translate(319,219)"/><path fill="#0B0D13" d="M0 0 C1.47417409 3.83285264 0.38262873 6.25876932 -1 10 C-1 10.66 -1 11.32 -1 12 C-1.66 12 -2.32 12 -3 12 C-3.33 13.32 -3.66 14.64 -4 16 C-3.65697965 10.01488629 -3.17692157 5.24882694 0 0 Z" transform="translate(261,210)"/><path fill="#A36D5B" d="M0 0 C2 2 2 2 2.125 4.625 C2.08375 5.40875 2.0425 6.1925 2 7 C1.67 6.34 1.34 5.68 1 5 C-0.65 5 -2.3 5 -4 5 C-4 4.01 -4 3.02 -4 2 C-2.68 1.34 -1.36 0.68 0 0 Z" transform="translate(274,157)"/><path fill="#492B22" d="M0 0 C2.64 0.33 5.28 0.66 8 1 C8 2.65 8 4.3 8 6 C7.01 6.495 7.01 6.495 6 7 C5.7525 6.360625 5.505 5.72125 5.25 5.0625 C4.18437567 2.81258459 4.18437567 2.81258459 1.875 2.25 C0.946875 2.12625 0.946875 2.12625 0 2 C0 1.34 0 0.68 0 0 Z" transform="translate(264,123)"/><path fill="#273763" d="M0 0 C0.66 0 1.32 0 2 0 C2.33 1.65 2.66 3.3 3 5 C2.01 4.67 1.02 4.34 0 4 C0.66 5.65 1.32 7.3 2 9 C1.01 9.495 1.01 9.495 0 10 C-2 7 -2 7 -1.6875 3.875 C-1 1 -1 1 0 0 Z" transform="translate(258,99)"/><path fill="#304579" d="M0 0 C0.66 0 1.32 0 2 0 C2.66 0.66 3.32 1.32 4 2 C4.99 2.33 5.98 2.66 7 3 C7.33 4.65 7.66 6.3 8 8 C6.68 7.01 5.36 6.02 4 5 C3.01 5.495 3.01 5.495 2 6 C1.34 4.02 0.68 2.04 0 0 Z" transform="translate(231,200)"/><path fill="#192241" d="M0 0 C0.33 0 0.66 0 1 0 C1.66 4.62 2.32 9.24 3 14 C2.34 14 1.68 14 1 14 C-1.48063781 4.58997722 -1.48063781 4.58997722 0 0 Z" transform="translate(308,353)"/><path fill="#222" d="M0 0 C1.98 0.99 1.98 0.99 4 2 C3.01 3.485 3.01 3.485 2 5 C1.34 4.67 0.68 4.34 0 4 C0 2.68 0 1.36 0 0 Z M-2 5 C-1.34 5.33 -0.68 5.66 0 6 C-1.375 7.5 -1.375 7.5 -3 9 C-3.66 9 -4.32 9 -5 9 C-5 8.34 -5 7.68 -5 7 C-4.01 6.34 -3.02 5.68 -2 5 Z" transform="translate(323,451)"/><path fill="#0C0E12" d="M0 0 C0.33 0 0.66 0 1 0 C1.33 2.97 1.66 5.94 2 9 C1.01 9.495 1.01 9.495 0 10 C-1.49106457 7.01787087 -1.11941467 4.28390342 -1 1 C-0.67 0.67 -0.34 0.34 0 0 Z" transform="translate(275,215)"/><path fill="#1F1F1F" d="M0 0 C-5.625 4 -5.625 4 -9 4 C-8.25 2.0625 -8.25 2.0625 -7 0 C-4.04680182 -1.23843794 -3.12561472 -1.04187157 0 0 Z" transform="translate(283,465)"/><path fill="#292928" d="M0 0 C0 3 0 3 -1 5 C-1.66 5 -2.32 5 -3 5 C-3 6.65 -3 8.3 -3 10 C-3.66 9.67 -4.32 9.34 -5 9 C-3.375 2.25 -3.375 2.25 0 0 Z" transform="translate(319,303)"/><path fill="#C79784" d="M0 0 C1.26706235 3.80118706 0.57172296 5.3850372 -1 9 C-1.99 9.33 -2.98 9.66 -4 10 C-3.29445932 6.33118845 -1.72264494 3.29549466 0 0 Z" transform="translate(287,134)"/><path fill="#C29782" d="M0 0 C0.99 0.33 1.98 0.66 3 1 C2.0409375 2.11375 2.0409375 2.11375 1.0625 3.25 C-0.78333407 5.7111121 -1.56069174 7.03466926 -2 10 C-2.66 10 -3.32 10 -4 10 C-2.99806563 6.20696275 -2.18975773 3.28463659 0 0 Z" transform="translate(272,109)"/><path fill="#4A433E" d="M0 0 C-0.33 0.66 -0.66 1.32 -1 2 C-3.32156597 2.40729228 -5.6568787 2.74438677 -8 3 C-7.67 2.01 -7.34 1.02 -7 0 C-4.3333581 -1.33332095 -2.83319697 -0.67102033 0 0 Z" transform="translate(316,499)"/><path fill="#7F4D41" d="M0 0 C2.125 0.9375 2.125 0.9375 4 2 C3.67 2.66 3.34 3.32 3 4 C1.35 4 -0.3 4 -2 4 C-2 3.01 -2 2.02 -2 1 C-1.34 0.67 -0.68 0.34 0 0 Z" transform="translate(308,214)"/><path fill="#262930" d="M0 0 C0.99 0.33 1.98 0.66 3 1 C2.67 2.98 2.34 4.96 2 7 C1.01 6.34 0.02 5.68 -1 5 C-0.67 3.35 -0.34 1.7 0 0 Z" transform="translate(342,213)"/><path fill="#2F3339" d="M0 0 C1.32 0.66 2.64 1.32 4 2 C3.67 3.65 3.34 5.3 3 7 C1.68 5.68 0.36 4.36 -1 3 C-0.67 2.01 -0.34 1.02 0 0 Z" transform="translate(289,210)"/><path fill="#45251F" d="M0 0 C2.375 0.25 2.375 0.25 5 1 C6.3125 3.0625 6.3125 3.0625 7 5 C4.11424181 4.60196439 3.17810487 4.20990931 1.25 1.9375 C0.8375 1.298125 0.425 0.65875 0 0 Z" transform="translate(302,208)"/><path fill="#3D383B" d="M0 0 C7.42857143 -0.28571429 7.42857143 -0.28571429 11 2 C9.906875 1.95875 8.81375 1.9175 7.6875 1.875 C3.91107771 1.67925334 3.91107771 1.67925334 1 4 C0.67 2.68 0.34 1.36 0 0 Z" transform="translate(278,208)"/><path fill="#19181E" d="M0 0 C1.65 0 3.3 0 5 0 C5.66 1.65 6.32 3.3 7 5 C4.36 4.01 1.72 3.02 -1 2 C-0.67 1.34 -0.34 0.68 0 0 Z" transform="translate(324,198)"/><path fill="#12141A" d="M0 0 C2.475 0.495 2.475 0.495 5 1 C4.67 2.65 4.34 4.3 4 6 C1 4 1 4 0.3125 1.875 C0.209375 1.25625 0.10625 0.6375 0 0 Z" transform="translate(251,236)"/><path fill="#9F7065" d="M0 0 C0 0.99 0 1.98 0 3 C-1.65 3 -3.3 3 -5 3 C-5.33 2.01 -5.66 1.02 -6 0 C-3 -1 -3 -1 0 0 Z" transform="translate(299,211)"/><path fill="#B37666" d="M0 0 C-1.32 1.32 -2.64 2.64 -4 4 C-4.99 3.67 -5.98 3.34 -7 3 C-7 2.34 -7 1.68 -7 1 C-4.53721199 -0.231394 -2.7204945 -0.07159196 0 0 Z" transform="translate(277,201)"/><path fill="#926658" d="M0 0 C0.33 0.99 0.66 1.98 1 3 C0.67 3.66 0.34 4.32 0 5 C-2.0625 5.625 -2.0625 5.625 -4 6 C-4 5.01 -4 4.02 -4 3 C-2 1.3125 -2 1.3125 0 0 Z" transform="translate(284,143)"/><path fill="#3A2626" d="M0 0 C3.875 1.75 3.875 1.75 5 4 C4.34 4 3.68 4 3 4 C3.33 4.99 3.66 5.98 4 7 C3.34 7 2.68 7 2 7 C0.5393715 4.35261084 0 3.10551666 0 0 Z" transform="translate(261,143)"/><path fill="#736F6C" d="M0 0 C0.99 0.66 1.98 1.32 3 2 C3 2.99 3 3.98 3 5 C1.35 5 -0.3 5 -2 5 C-2 4.01 -2 3.02 -2 2 C-1.34 2 -0.68 2 0 2 C0 1.34 0 0.68 0 0 Z" transform="translate(294,484)"/><path fill="#211E1B" d="M0 0 C0.66 0.66 1.32 1.32 2 2 C3.31747324 2.69748583 4.64914193 3.36959957 6 4 C4.125 5.0625 4.125 5.0625 2 6 C1.34 5.67 0.68 5.34 0 5 C0 3.35 0 1.7 0 0 Z" transform="translate(329,475)"/><path fill="#A4A198" d="M0 0 C-0.9590625 0.433125 -0.9590625 0.433125 -1.9375 0.875 C-4.15206079 1.82823451 -4.15206079 1.82823451 -5 4 C-5.66 4 -6.32 4 -7 4 C-7.33 4.66 -7.66 5.32 -8 6 C-8 4.35 -8 2.7 -8 1 C-5.07175348 0.02391783 -3.04386724 -0.08226668 0 0 Z" transform="translate(316,270)"/><path fill="#0D0E0F" d="M0 0 C1.32 0.33 2.64 0.66 4 1 C4.33 2.65 4.66 4.3 5 6 C3.0625 5.25 3.0625 5.25 1 4 C0.25 1.875 0.25 1.875 0 0 Z" transform="translate(275,267)"/><path fill="#C0806E" d="M0 0 C1.65 0 3.3 0 5 0 C5 1.98 5 3.96 5 6 C4.67 6 4.34 6 4 6 C4 4.35 4 2.7 4 1 C1.525 2.485 1.525 2.485 -1 4 C-0.67 2.68 -0.34 1.36 0 0 Z" transform="translate(291,200)"/></svg>